  0
SECTION
  2
HEADER
  9
$ACADVER
  1
AC1015
  9
$ACADMAINTVER
 70
     6
  9
$DWGCODEPAGE
  3
ANSI_1252
  9
$INSBASE
 10
0.0
 20
0.0
 30
0.0
  9
$EXTMIN
 10
0.0
 20
0.0
 30
0.0
  9
$EXTMAX
 10
1189.0
 20
841.0
 30
0.0
  9
$LIMMIN
 10
0.0
 20
0.0
  9
$LIMMAX
 10
1189.0
 20
841.0
  9
$ORTHOMODE
 70
     0
  9
$REGENMODE
 70
     1
  9
$FILLMODE
 70
     1
  9
$QTEXTMODE
 70
     0
  9
$MIRRTEXT
 70
     1
  9
$LTSCALE
 40
1.0
  9
$ATTMODE
 70
     1
  9
$TEXTSIZE
 40
3.5
  9
$TRACEWID
 40
1.0
  9
$TEXTSTYLE
  7
Standard
  9
$CLAYER
  8
0
  9
$CELTYPE
  6
ByLayer
  9
$CECOLOR
 62
   256
  9
$CELTSCALE
 40
1.0
  9
$DISPSILH
 70
     0
  9
$DIMSCALE
 40
1.0
  9
$DIMASZ
 40
3.556
  9
$DIMEXO
 40
1.0
  9
$DIMDLI
 40
3.75
  9
$DIMRND
 40
0.0
  9
$DIMDLE
 40
0.0
  9
$DIMEXE
 40
1.0
  9
$DIMTP
 40
0.0
  9
$DIMTM
 40
0.0
  9
$DIMTXT
 40
3.5
  9
$DIMCEN
 40
2.5
  9
$DIMTSZ
 40
0.0
  9
$DIMTOL
 70
     0
  9
$DIMLIM
 70
     0
  9
$DIMTIH
 70
     1
  9
$DIMTOH
 70
     1
  9
$DIMSE1
 70
     0
  9
$DIMSE2
 70
     0
  9
$DIMTAD
 70
     1
  9
$DIMZIN
 70
     1
  9
$DIMBLK
  1

  9
$DIMASO
 70
     1
  9
$DIMSHO
 70
     1
  9
$DIMPOST
  1

  9
$DIMAPOST
  1

  9
$DIMALT
 70
     0
  9
$DIMALTD
 70
     3
  9
$DIMALTF
 40
0.0393700787
  9
$DIMLFAC
 40
1.0
  9
$DIMTOFL
 70
     1
  9
$DIMTVP
 40
0.0
  9
$DIMTIX
 70
     0
  9
$DIMSOXD
 70
     0
  9
$DIMSAH
 70
     0
  9
$DIMBLK1
  1

  9
$DIMBLK2
  1

  9
$DIMSTYLE
  2
ISO-25
  9
$DIMCLRD
 70
     0
  9
$DIMCLRE
 70
     0
  9
$DIMCLRT
 70
     0
  9
$DIMTFAC
 40
1.0
  9
$DIMGAP
 40
1.524
  9
$DIMJUST
 70
     0
  9
$DIMSD1
 70
     0
  9
$DIMSD2
 70
     0
  9
$DIMTOLJ
 70
     0
  9
$DIMTZIN
 70
     1
  9
$DIMALTZ
 70
     0
  9
$DIMALTTZ
 70
     0
  9
$DIMUPT
 70
     0
  9
$DIMDEC
 70
     2
  9
$DIMTDEC
 70
     2
  9
$DIMALTU
 70
     2
  9
$DIMALTTD
 70
     3
  9
$DIMTXSTY
  7
Standard
  9
$DIMAUNIT
 70
     0
  9
$DIMADEC
 70
     0
  9
$DIMALTRND
 40
0.0
  9
$DIMAZIN
 70
     0
  9
$DIMDSEP
 70
    44
  9
$DIMATFIT
 70
     3
  9
$DIMFRAC
 70
     0
  9
$DIMLDRBLK
  1

  9
$DIMLUNIT
 70
     2
  9
$DIMLWD
 70
    -2
  9
$DIMLWE
 70
    -2
  9
$DIMTMOVE
 70
     0
  9
$LUNITS
 70
     2
  9
$LUPREC
 70
     3
  9
$SKETCHINC
 40
1.0
  9
$FILLETRAD
 40
10.0
  9
$AUNITS
 70
     0
  9
$AUPREC
 70
     0
  9
$MENU
  1
.
  9
$ELEVATION
 40
0.0
  9
$PELEVATION
 40
0.0
  9
$THICKNESS
 40
0.0
  9
$LIMCHECK
 70
     0
  9
$CHAMFERA
 40
0.0
  9
$CHAMFERB
 40
0.0
  9
$CHAMFERC
 40
0.0
  9
$CHAMFERD
 40
0.0
  9
$SKPOLY
 70
     0
  9
$TDCREATE
 40
2458361.669935613
  9
$TDUCREATE
 40
2458361.794935613
  9
$TDUPDATE
 40
2458361.669935787
  9
$TDUUPDATE
 40
2458361.794935787
  9
$TDINDWG
 40
0.0000000116
  9
$TDUSRTIMER
 40
0.0000000116
  9
$USRTIMER
 70
     1
  9
$ANGBASE
 50
0.0
  9
$ANGDIR
 70
     0
  9
$PDMODE
 70
     0
  9
$PDSIZE
 40
-1.0
  9
$PLINEWID
 40
0.0
  9
$SPLFRAME
 70
     0
  9
$SPLINETYPE
 70
     6
  9
$SPLINESEGS
 70
     8
  9
$HANDSEED
  5
1D3
  9
$SURFTAB1
 70
     6
  9
$SURFTAB2
 70
     6
  9
$SURFTYPE
 70
     6
  9
$SURFU
 70
     6
  9
$SURFV
 70
     6
  9
$UCSBASE
  2

  9
$UCSNAME
  2

  9
$UCSORG
 10
0.0
 20
0.0
 30
0.0
  9
$UCSXDIR
 10
1.0
 20
0.0
 30
0.0
  9
$UCSYDIR
 10
0.0
 20
1.0
 30
0.0
  9
$UCSORTHOREF
  2

  9
$UCSORTHOVIEW
 70
     0
  9
$UCSORGTOP
 10
0.0
 20
0.0
 30
0.0
  9
$UCSORGBOTTOM
 10
0.0
 20
0.0
 30
0.0
  9
$UCSORGLEFT
 10
0.0
 20
0.0
 30
0.0
  9
$UCSORGRIGHT
 10
0.0
 20
0.0
 30
0.0
  9
$UCSORGFRONT
 10
0.0
 20
0.0
 30
0.0
  9
$UCSORGBACK
 10
0.0
 20
0.0
 30
0.0
  9
$PUCSBASE
  2

  9
$PUCSNAME
  2

  9
$PUCSORG
 10
0.0
 20
0.0
 30
0.0
  9
$PUCSXDIR
 10
1.0
 20
0.0
 30
0.0
  9
$PUCSYDIR
 10
0.0
 20
1.0
 30
0.0
  9
$PUCSORTHOREF
  2

  9
$PUCSORTHOVIEW
 70
     0
  9
$PUCSORGTOP
 10
0.0
 20
0.0
 30
0.0
  9
$PUCSORGBOTTOM
 10
0.0
 20
0.0
 30
0.0
  9
$PUCSORGLEFT
 10
0.0
 20
0.0
 30
0.0
  9
$PUCSORGRIGHT
 10
0.0
 20
0.0
 30
0.0
  9
$PUCSORGFRONT
 10
0.0
 20
0.0
 30
0.0
  9
$PUCSORGBACK
 10
0.0
 20
0.0
 30
0.0
  9
$USERI1
 70
     0
  9
$USERI2
 70
     0
  9
$USERI3
 70
     0
  9
$USERI4
 70
     0
  9
$USERI5
 70
     0
  9
$USERR1
 40
0.0
  9
$USERR2
 40
0.0
  9
$USERR3
 40
0.0
  9
$USERR4
 40
0.0
  9
$USERR5
 40
0.0
  9
$WORLDVIEW
 70
     1
  9
$SHADEDGE
 70
     3
  9
$SHADEDIF
 70
    70
  9
$TILEMODE
 70
     1
  9
$MAXACTVP
 70
    64
  9
$PINSBASE
 10
0.0
 20
0.0
 30
0.0
  9
$PLIMCHECK
 70
     0
  9
$PEXTMIN
 10
1.0000000000E+20
 20
1.0000000000E+20
 30
1.0000000000E+20
  9
$PEXTMAX
 10
-1.0000000000E+20
 20
-1.0000000000E+20
 30
-1.0000000000E+20
  9
$PLIMMIN
 10
0.0
 20
0.0
  9
$PLIMMAX
 10
420.0
 20
297.0
  9
$UNITMODE
 70
     0
  9
$VISRETAIN
 70
     1
  9
$PLINEGEN
 70
     0
  9
$PSLTSCALE
 70
     1
  9
$TREEDEPTH
 70
  3020
  9
$CMLSTYLE
  2
Standard
  9
$CMLJUST
 70
     0
  9
$CMLSCALE
 40
20.0
  9
$PROXYGRAPHICS
 70
     1
  9
$MEASUREMENT
 70
     1
  9
$CELWEIGHT
370
    -1
  9
$ENDCAPS
280
     0
  9
$JOINSTYLE
280
     0
  9
$LWDISPLAY
290
     1
  9
$INSUNITS
 70
     4
  9
$HYPERLINKBASE
  1

  9
$STYLESHEET
  1

  9
$XEDIT
290
     1
  9
$CEPSNTYPE
380
     0
  9
$PSTYLEMODE
290
     1
  9
$FINGERPRINTGUID
  2
{D0EA4BBD-F06B-4E13-A8A9-98874B281098}
  9
$VERSIONGUID
  2
{FAEB1C32-E019-11D5-929B-00C0DF256EC4}
  9
$EXTNAMES
290
     1
  9
$PSVPSCALE
 40
0.0
  9
$OLESTARTUP
290
     0
  0
ENDSEC
  0
SECTION
  2
CLASSES
  0
CLASS
  1
ACDBDICTIONARYWDFLT
  2
AcDbDictionaryWithDefault
  3
ObjectDBX Classes
 90
        0
280
     0
281
     0
  0
CLASS
  1
VISUALSTYLE
  2
AcDbVisualStyle
  3
ObjectDBX Classes
 90
     4095
280
     0
281
     0
  0
CLASS
  1
MATERIAL
  2
AcDbMaterial
  3
ObjectDBX Classes
 90
     1153
280
     0
281
     0
  0
CLASS
  1
SCALE
  2
AcDbScale
  3
ObjectDBX Classes
 90
     1153
280
     0
281
     0
  0
CLASS
  1
TABLESTYLE
  2
AcDbTableStyle
  3
ObjectDBX Classes
 90
     4095
280
     0
281
     0
  0
CLASS
  1
MLEADERSTYLE
  2
AcDbMLeaderStyle
  3
ACDB_MLEADERSTYLE_CLASS
 90
     4095
280
     0
281
     0
  0
CLASS
  1
SUN
  2
AcDbSun
  3
SCENEOE
 90
     1153
280
     0
281
     0
  0
CLASS
  1
ACDBPLACEHOLDER
  2
AcDbPlaceHolder
  3
ObjectDBX Classes
 90
        0
280
     0
281
     0
  0
CLASS
  1
LAYOUT
  2
AcDbLayout
  3
ObjectDBX Classes
 90
        0
280
     0
281
     0
  0
ENDSEC
  0
SECTION
  2
TABLES
  0
TABLE
  2
VPORT
  5
8
330
0
100
AcDbSymbolTable
 70
     1
  0
VPORT
  5
29
330
8
100
AcDbSymbolTableRecord
100
AcDbViewportTableRecord
  2
*Active
 70
     0
 10
0.0
 20
0.0
 11
1.0
 21
1.0
 12
594.5
 22
420.5
 13
0.0
 23
0.0
 14
10.0
 24
10.0
 15
10.0
 25
10.0
 16
0.0
 26
0.0
 36
1.0
 17
0.0
 27
0.0
 37
0.0
 40
841.0
 41
1.4137931034
 42
50.0
 43
0.0
 44
0.0
 50
0.0
 51
0.0
 71
     0
 72
  2000
 73
     1
 74
     3
 75
     0
 76
     0
 77
     0
 78
     0
281
     0
 65
     1
110
0.0
120
0.0
130
0.0
111
1.0
121
0.0
131
0.0
112
0.0
122
1.0
132
0.0
 79
     0
146
0.0
  0
ENDTAB
  0
TABLE
  2
LTYPE
  5
5
330
0
100
AcDbSymbolTable
 70
     6
  0
LTYPE
  5
14
330
5
100
AcDbSymbolTableRecord
100
AcDbLinetypeTableRecord
  2
ByBlock
 70
     0
  3

 72
    65
 73
     0
 40
0.0
  0
LTYPE
  5
15
330
5
100
AcDbSymbolTableRecord
100
AcDbLinetypeTableRecord
  2
ByLayer
 70
     0
  3

 72
    65
 73
     0
 40
0.0
  0
LTYPE
  5
16
330
5
100
AcDbSymbolTableRecord
100
AcDbLinetypeTableRecord
  2
Continuous
 70
     0
  3
Solid line
 72
    65
 73
     0
 40
0.0
  0
LTYPE
  5
6E
330
5
100
AcDbSymbolTableRecord
100
AcDbLinetypeTableRecord
  2
HIDDEN
 70
     0
  3
Hidden __ __ __ __ __ __ __ __ __ __ __ __ __ __
 72
    65
 73
     2
 40
1.905
 49
1.27
 74
     0
 49
-0.635
 74
     0
  0
LTYPE
  5
6F
330
5
100
AcDbSymbolTableRecord
100
AcDbLinetypeTableRecord
  2
PHANTOM
 70
     0
  3
Phantom ______  __  __  ______  __  __  ______
 72
    65
 73
     6
 40
12.7
 49
6.35
 74
     0
 49
-1.27
 74
     0
 49
1.27
 74
     0
 49
-1.27
 74
     0
 49
1.27
 74
     0
 49
-1.27
 74
     0
  0
LTYPE
  5
70
330
5
100
AcDbSymbolTableRecord
100
AcDbLinetypeTableRecord
  2
CENTER
 70
     0
  3
Center ____ _ ____ _ ____ _ ____ _ ____ _ ____
 72
    65
 73
     4
 40
10.16
 49
6.35
 74
     0
 49
-1.27
 74
     0
 49
1.27
 74
     0
 49
-1.27
 74
     0
  0
LTYPE
  5
71
330
5
100
AcDbSymbolTableRecord
100
AcDbLinetypeTableRecord
  2
CENTERX2
 70
     0
  3
Center (2x) ________  __  ________  __  _____
 72
    65
 73
     4
 40
20.32
 49
12.7
 74
     0
 49
-2.54
 74
     0
 49
2.54
 74
     0
 49
-2.54
 74
     0
  0
LTYPE
  5
72
330
5
100
AcDbSymbolTableRecord
100
AcDbLinetypeTableRecord
  2
DOT2
 70
     0
  3
Dot (.5x) ........................................
 72
    65
 73
     2
 40
0.635
 49
0.0
 74
     0
 49
-0.635
 74
     0
  0
ENDTAB
  0
TABLE
  2
LAYER
  5
2
330
0
100
AcDbSymbolTable
 70
     8
  0
LAYER
  5
10
330
2
100
AcDbSymbolTableRecord
100
AcDbLayerTableRecord
  2
0
 70
     0
 62
     7
  6
Continuous
370
    -3
390
F
  0
LAYER
  5
73
330
2
100
AcDbSymbolTableRecord
100
AcDbLayerTableRecord
  2
SLD-0_0
 70
     0
 62
   179
  6
Continuous
370
    -3
390
F
  0
LAYER
  5
74
330
2
100
AcDbSymbolTableRecord
100
AcDbLayerTableRecord
  2
SLD-0
 70
     0
 62
   179
  6
Continuous
370
    -3
390
F
  0
LAYER
  5
75
330
2
100
AcDbSymbolTableRecord
100
AcDbLayerTableRecord
  2
BATONS
 70
     0
 62
   179
  6
Continuous
370
    -3
390
F
  0
LAYER
  5
76
330
2
100
AcDbSymbolTableRecord
100
AcDbLayerTableRecord
  2
LAYER_1
 70
     0
 62
   179
  6
Continuous
370
    -3
390
F
  0
LAYER
  5
77
330
2
100
AcDbSymbolTableRecord
100
AcDbLayerTableRecord
  2
PROFILE_INTERIOR
 70
     0
 62
    84
  6
Continuous
370
    -3
390
F
  0
LAYER
  5
78
330
2
100
AcDbSymbolTableRecord
100
AcDbLayerTableRecord
  2
PROFILE_EXTERIOR
 70
     0
 62
    30
  6
Continuous
370
    -3
390
F
  0
LAYER
  5
79
330
2
100
AcDbSymbolTableRecord
100
AcDbLayerTableRecord
  2
POCKET_6MM
 70
     0
 62
     5
  6
Continuous
370
    -3
390
F
  0
ENDTAB
  0
TABLE
  2
STYLE
  5
3
330
0
100
AcDbSymbolTable
 70
     1
  0
STYLE
  5
11
330
3
100
AcDbSymbolTableRecord
100
AcDbTextStyleTableRecord
  2
Standard
 70
     0
 40
0.0
 41
1.0
 50
0.0
 71
     0
 42
3.5
  3
txt
  4

  0
ENDTAB
  0
TABLE
  2
VIEW
  5
6
330
0
100
AcDbSymbolTable
 70
     0
  0
ENDTAB
  0
TABLE
  2
UCS
  5
7
330
0
100
AcDbSymbolTable
 70
     0
  0
ENDTAB
  0
TABLE
  2
APPID
  5
9
330
0
100
AcDbSymbolTable
 70
     1
  0
APPID
  5
12
330
9
100
AcDbSymbolTableRecord
100
AcDbRegAppTableRecord
  2
ACAD
 70
     0
  0
ENDTAB
  0
TABLE
  2
DIMSTYLE
  5
A
330
0
100
AcDbSymbolTable
 70
     1
100
AcDbDimStyleTable
  0
DIMSTYLE
105
27
330
A
100
AcDbSymbolTableRecord
100
AcDbDimStyleTableRecord
  2
ISO-25
 70
     0
 41
2.5
 42
0.625
 43
3.75
 44
1.25
 73
     0
 74
     0
 77
     1
 78
     8
140
2.5
141
2.5
143
0.0393700787
147
0.625
171
     3
172
     1
178
     0
271
     2
272
     2
274
     3
278
    44
283
     0
284
     8
340
11
  0
ENDTAB
  0
TABLE
  2
BLOCK_RECORD
  5
1
330
0
100
AcDbSymbolTable
 70
     1
  0
BLOCK_RECORD
  5
1F
330
1
100
AcDbSymbolTableRecord
100
AcDbBlockTableRecord
  2
*Model_Space
340
22
  0
BLOCK_RECORD
  5
1B
330
1
100
AcDbSymbolTableRecord
100
AcDbBlockTableRecord
  2
*Paper_Space
340
1E
  0
BLOCK_RECORD
  5
23
330
1
100
AcDbSymbolTableRecord
100
AcDbBlockTableRecord
  2
*Paper_Space0
340
26
  0
ENDTAB
  0
ENDSEC
  0
SECTION
  2
BLOCKS
  0
BLOCK
  5
20
330
1F
100
AcDbEntity
  8
0
100
AcDbBlockBegin
  2
*Model_Space
 70
     0
 10
0.0
 20
0.0
 30
0.0
  3
*Model_Space
  1

  0
ENDBLK
  5
21
330
1F
100
AcDbEntity
  8
0
100
AcDbBlockEnd
  0
BLOCK
  5
1C
330
1B
100
AcDbEntity
 67
     1
  8
0
100
AcDbBlockBegin
  2
*Paper_Space
 70
     0
 10
0.0
 20
0.0
 30
0.0
  3
*Paper_Space
  1

  0
ENDBLK
  5
1D
330
1B
100
AcDbEntity
 67
     1
  8
0
100
AcDbBlockEnd
  0
BLOCK
  5
24
330
23
100
AcDbEntity
  8
0
100
AcDbBlockBegin
  2
*Paper_Space0
 70
     0
 10
0.0
 20
0.0
 30
0.0
  3
*Paper_Space0
  1

  0
ENDBLK
  5
25
330
23
100
AcDbEntity
  8
0
100
AcDbBlockEnd
  0
ENDSEC
  0
SECTION
  2
ENTITIES
  0
LINE
  5
7A
330
1F
100
AcDbEntity
  8
PROFILE_EXTERIOR
100
AcDbLine
 10
227.5740510034
 20
112.2467617282
 30
0.0
 11
677.5740510034
 21
112.2467617282
 31
0.0
  0
LINE
  5
7B
330
1F
100
AcDbEntity
  8
PROFILE_EXTERIOR
100
AcDbLine
 10
677.5740510034
 20
602.2467617282
 30
0.0
 11
227.5740510034
 21
602.2467617282
 31
0.0
  0
LINE
  5
7C
330
1F
100
AcDbEntity
  8
PROFILE_EXTERIOR
100
AcDbLine
 10
227.5740510034
 20
112.2467617282
 30
0.0
 11
227.5740510034
 21
602.2467617282
 31
0.0
  0
LINE
  5
7D
330
1F
100
AcDbEntity
  8
PROFILE_EXTERIOR
100
AcDbLine
 10
-179.999094393
 20
602.2467617282
 30
0.0
 11
-179.999094393
 21
112.2467617282
 31
0.0
  0
LINE
  5
7E
330
1F
100
AcDbEntity
  8
PROFILE_EXTERIOR
100
AcDbLine
 10
-103.999094393
 20
602.2467617282
 30
0.0
 11
-103.999094393
 21
112.2467617282
 31
0.0
  0
LINE
  5
7F
330
1F
100
AcDbEntity
  8
PROFILE_EXTERIOR
100
AcDbLine
 10
73.383002538
 20
112.2467617282
 30
0.0
 11
73.383002538
 21
602.2467617282
 31
0.0
  0
LINE
  5
80
330
1F
100
AcDbEntity
  8
PROFILE_EXTERIOR
100
AcDbLine
 10
215.383002538
 20
112.2467617282
 30
0.0
 11
215.383002538
 21
602.2467617282
 31
0.0
  0
LINE
  5
81
330
1F
100
AcDbEntity
  8
PROFILE_EXTERIOR
100
AcDbLine
 10
-535.356523928
 20
602.2467617282
 30
0.0
 11
-892.356523928
 21
602.2467617282
 31
0.0
  0
LINE
  5
82
330
1F
100
AcDbEntity
  8
PROFILE_EXTERIOR
100
AcDbLine
 10
-892.356523928
 20
112.2467617282
 30
0.0
 11
-535.356523928
 21
112.2467617282
 31
0.0
  0
LINE
  5
83
330
1F
100
AcDbEntity
  8
PROFILE_EXTERIOR
100
AcDbLine
 10
-892.356523928
 20
112.2467617282
 30
0.0
 11
-892.356523928
 21
602.2467617282
 31
0.0
  0
LINE
  5
84
330
1F
100
AcDbEntity
  8
PROFILE_EXTERIOR
100
AcDbLine
 10
-535.356523928
 20
112.2467617282
 30
0.0
 11
-535.356523928
 21
602.2467617282
 31
0.0
  0
LINE
  5
85
330
1F
100
AcDbEntity
  8
PROFILE_EXTERIOR
100
AcDbLine
 10
11.0933147942
 20
795.0701531073
 30
0.0
 11
126.1583292374
 21
758.5411508558
 31
0.0
  0
LINE
  5
86
330
1F
100
AcDbEntity
  8
PROFILE_EXTERIOR
100
AcDbLine
 10
-83.7106775927
 20
1125.7064682035
 30
0.0
 11
-117.620651389
 21
1204.3484685907
 31
0.0
  0
LINE
  5
87
330
1F
100
AcDbEntity
  8
PROFILE_EXTERIOR
100
AcDbLine
 10
-151.1124914338
 20
1217.1214820206
 30
0.0
 11
-279.9056837914
 21
1157.2743119136
 31
0.0
  0
LINE
  5
88
330
1F
100
AcDbEntity
  8
PROFILE_EXTERIOR
100
AcDbLine
 10
135.4932066505
 20
738.5414190006
 30
0.0
 11
108.2979455539
 21
672.3825119105
 31
0.0
  0
LINE
  5
89
330
1F
100
AcDbEntity
  8
PROFILE_EXTERIOR
100
AcDbLine
 10
-279.9056837914
 20
1157.2743119136
 30
0.0
 11
-279.9056837914
 21
701.8426485436
 31
0.0
  0
LINE
  5
8A
330
1F
100
AcDbEntity
  8
PROFILE_EXTERIOR
100
AcDbLine
 10
92.8763510807
 20
663.1654837776
 30
0.0
 11
-279.9056837914
 21
701.8426485436
 31
0.0
  0
LINE
  5
8B
330
1F
100
AcDbEntity
  8
PROFILE_EXTERIOR
100
AcDbLine
 10
-523.1654754625
 20
132.2467617282
 30
0.0
 11
-523.1654754625
 21
147.2467617282
 31
0.0
  0
LINE
  5
8C
330
1F
100
AcDbEntity
  8
PROFILE_EXTERIOR
100
AcDbLine
 10
-373.1654754625
 20
147.2467617282
 30
0.0
 11
-373.1654754625
 21
132.2467617282
 31
0.0
  0
LINE
  5
8D
330
1F
100
AcDbEntity
  8
PROFILE_EXTERIOR
100
AcDbLine
 10
-373.1654754625
 20
567.2467617282
 30
0.0
 11
-373.1654754625
 21
582.2467617282
 31
0.0
  0
LINE
  5
8E
330
1F
100
AcDbEntity
  8
PROFILE_EXTERIOR
100
AcDbLine
 10
-523.1654754625
 20
112.2467617282
 30
0.0
 11
-523.1654754625
 21
602.2467617282
 31
0.0
  0
LINE
  5
8F
330
1F
100
AcDbEntity
  8
PROFILE_EXTERIOR
100
AcDbLine
 10
-373.1654754625
 20
112.2467617282
 30
0.0
 11
-373.1654754625
 21
602.2467617282
 31
0.0
  0
LINE
  5
90
330
1F
100
AcDbEntity
  8
PROFILE_EXTERIOR
100
AcDbLine
 10
-91.8080459275
 20
112.2467617282
 30
0.0
 11
-91.8080459275
 21
602.2467617282
 31
0.0
  0
LINE
  5
91
330
1F
100
AcDbEntity
  8
PROFILE_EXTERIOR
100
AcDbLine
 10
61.1919540725
 20
602.2467617282
 30
0.0
 11
61.1919540725
 21
112.2467617282
 31
0.0
  0
LINE
  5
92
330
1F
100
AcDbEntity
  8
PROFILE_EXTERIOR
100
AcDbLine
 10
-523.1654754625
 20
602.2467617282
 30
0.0
 11
-373.1654754625
 21
602.2467617282
 31
0.0
  0
LINE
  5
93
330
1F
100
AcDbEntity
  8
PROFILE_EXTERIOR
100
AcDbLine
 10
-373.1654754625
 20
112.2467617282
 30
0.0
 11
-523.1654754625
 21
112.2467617282
 31
0.0
  0
LINE
  5
94
330
1F
100
AcDbEntity
  8
PROFILE_EXTERIOR
100
AcDbLine
 10
-179.999094393
 20
112.2467617282
 30
0.0
 11
-103.999094393
 21
112.2467617282
 31
0.0
  0
LINE
  5
95
330
1F
100
AcDbEntity
  8
PROFILE_EXTERIOR
100
AcDbLine
 10
-103.999094393
 20
602.2467617282
 30
0.0
 11
-179.999094393
 21
602.2467617282
 31
0.0
  0
LINE
  5
96
330
1F
100
AcDbEntity
  8
PROFILE_EXTERIOR
100
AcDbLine
 10
61.1919540725
 20
112.2467617282
 30
0.0
 11
-91.8080459275
 21
112.2467617282
 31
0.0
  0
LINE
  5
97
330
1F
100
AcDbEntity
  8
PROFILE_EXTERIOR
100
AcDbLine
 10
-91.8080459275
 20
602.2467617282
 30
0.0
 11
61.1919540725
 21
602.2467617282
 31
0.0
  0
LINE
  5
98
330
1F
100
AcDbEntity
  8
PROFILE_EXTERIOR
100
AcDbLine
 10
73.383002538
 20
602.2467617282
 30
0.0
 11
215.383002538
 21
602.2467617282
 31
0.0
  0
LINE
  5
99
330
1F
100
AcDbEntity
  8
PROFILE_EXTERIOR
100
AcDbLine
 10
215.383002538
 20
112.2467617282
 30
0.0
 11
73.383002538
 21
112.2467617282
 31
0.0
  0
LINE
  5
9A
330
1F
100
AcDbEntity
  8
PROFILE_EXTERIOR
100
AcDbLine
 10
331.6201792081
 20
795.0701531074
 30
0.0
 11
216.5551647649
 21
758.5411508559
 31
0.0
  0
LINE
  5
9B
330
1F
100
AcDbEntity
  8
PROFILE_EXTERIOR
100
AcDbLine
 10
426.424171595
 20
1125.7064682035
 30
0.0
 11
460.3341453913
 21
1204.3484685907
 31
0.0
  0
LINE
  5
9C
330
1F
100
AcDbEntity
  8
PROFILE_EXTERIOR
100
AcDbLine
 10
493.8259854361
 20
1217.1214820207
 30
0.0
 11
622.6191777937
 21
1157.2743119137
 31
0.0
  0
LINE
  5
9D
330
1F
100
AcDbEntity
  8
PROFILE_EXTERIOR
100
AcDbLine
 10
207.2202873518
 20
738.5414190007
 30
0.0
 11
234.4155484484
 21
672.3825119106
 31
0.0
  0
LINE
  5
9E
330
1F
100
AcDbEntity
  8
PROFILE_EXTERIOR
100
AcDbLine
 10
622.6191777937
 20
1157.2743119137
 30
0.0
 11
622.6191777937
 21
701.8426485437
 31
0.0
  0
LINE
  5
9F
330
1F
100
AcDbEntity
  8
PROFILE_EXTERIOR
100
AcDbLine
 10
249.8371429216
 20
663.1654837777
 30
0.0
 11
622.6191777937
 21
701.8426485437
 31
0.0
  0
LINE
  5
A0
330
1F
100
AcDbEntity
  8
PROFILE_INTERIOR
100
AcDbLine
 10
596.9331901359
 20
163.7770932674
 30
0.0
 11
596.9331901359
 21
150.7770932674
 31
0.0
  0
LINE
  5
A1
330
1F
100
AcDbEntity
  8
PROFILE_INTERIOR
100
AcDbLine
 10
596.9331901359
 20
150.7770932674
 30
0.0
 11
628.9331901359
 21
150.7770932674
 31
0.0
  0
LINE
  5
A2
330
1F
100
AcDbEntity
  8
PROFILE_INTERIOR
100
AcDbLine
 10
628.9331901359
 20
150.7770932674
 30
0.0
 11
628.9331901359
 21
163.7770932674
 31
0.0
  0
LINE
  5
A3
330
1F
100
AcDbEntity
  8
PROFILE_INTERIOR
100
AcDbLine
 10
628.9331901359
 20
163.7770932674
 30
0.0
 11
596.9331901359
 21
163.7770932674
 31
0.0
  0
LINE
  5
A4
330
1F
100
AcDbEntity
  8
PROFILE_EXTERIOR
100
AcDbLine
 10
-191.8179228507
 20
112.2467617282
 30
0.0
 11
-191.8179228507
 21
602.2467617282
 31
0.0
  0
LINE
  5
A5
330
1F
100
AcDbEntity
  8
PROFILE_EXTERIOR
100
AcDbLine
 10
-191.8179228507
 20
602.2467617282
 30
0.0
 11
-361.8179228507
 21
602.2467617282
 31
0.0
  0
LINE
  5
A6
330
1F
100
AcDbEntity
  8
PROFILE_EXTERIOR
100
AcDbLine
 10
-361.8179228507
 20
112.2467617282
 30
0.0
 11
-191.8179228507
 21
112.2467617282
 31
0.0
  0
LINE
  5
A7
330
1F
100
AcDbEntity
  8
PROFILE_EXTERIOR
100
AcDbLine
 10
-361.8179228507
 20
112.2467617282
 30
0.0
 11
-361.8179228507
 21
602.2467617282
 31
0.0
  0
LINE
  5
A8
330
1F
100
AcDbEntity
  8
PROFILE_EXTERIOR
100
AcDbLine
 10
677.5740510034
 20
112.2467617282
 30
0.0
 11
677.5740510034
 21
602.2467617282
 31
0.0
  0
CIRCLE
  5
A9
330
1F
100
AcDbEntity
  8
PROFILE_INTERIOR
100
AcDbCircle
 10
639.0220671211
 20
540.3938966498
 30
0.0
 40
4.0
  0
CIRCLE
  5
AA
330
1F
100
AcDbEntity
  8
PROFILE_INTERIOR
100
AcDbCircle
 10
289.7171656925
 20
477.2467617282
 30
0.0
 40
5.000000000000057
  0
CIRCLE
  5
AB
330
1F
100
AcDbEntity
  8
PROFILE_INTERIOR
100
AcDbCircle
 10
309.7171656925
 20
477.2467617282
 30
0.0
 40
5.0
  0
CIRCLE
  5
AC
330
1F
100
AcDbEntity
  8
PROFILE_INTERIOR
100
AcDbCircle
 10
289.7171656925
 20
457.2467617282
 30
0.0
 40
5.000000000000057
  0
CIRCLE
  5
AD
330
1F
100
AcDbEntity
  8
PROFILE_INTERIOR
100
AcDbCircle
 10
309.7171656925
 20
457.2467617282
 30
0.0
 40
5.0
  0
CIRCLE
  5
AE
330
1F
100
AcDbEntity
  8
PROFILE_INTERIOR
100
AcDbCircle
 10
289.7171656925
 20
437.2467617282
 30
0.0
 40
5.000000000000057
  0
CIRCLE
  5
AF
330
1F
100
AcDbEntity
  8
PROFILE_INTERIOR
100
AcDbCircle
 10
309.7171656925
 20
437.2467617282
 30
0.0
 40
5.0
  0
CIRCLE
  5
B0
330
1F
100
AcDbEntity
  8
PROFILE_INTERIOR
100
AcDbCircle
 10
309.7171656925
 20
417.2467617282
 30
0.0
 40
5.0
  0
CIRCLE
  5
B1
330
1F
100
AcDbEntity
  8
PROFILE_INTERIOR
100
AcDbCircle
 10
309.7171656925
 20
377.2467617282
 30
0.0
 40
5.0
  0
CIRCLE
  5
B2
330
1F
100
AcDbEntity
  8
PROFILE_INTERIOR
100
AcDbCircle
 10
309.7171656925
 20
317.2467617282
 30
0.0
 40
5.0
  0
CIRCLE
  5
B3
330
1F
100
AcDbEntity
  8
PROFILE_INTERIOR
100
AcDbCircle
 10
309.7171656925
 20
337.2467617282
 30
0.0
 40
5.0
  0
CIRCLE
  5
B4
330
1F
100
AcDbEntity
  8
PROFILE_INTERIOR
100
AcDbCircle
 10
309.7171656925
 20
277.2467617282
 30
0.0
 40
5.0
  0
CIRCLE
  5
B5
330
1F
100
AcDbEntity
  8
PROFILE_INTERIOR
100
AcDbCircle
 10
289.7171656925
 20
297.2467617282
 30
0.0
 40
5.000000000000057
  0
CIRCLE
  5
B6
330
1F
100
AcDbEntity
  8
PROFILE_INTERIOR
100
AcDbCircle
 10
289.7171656925
 20
257.2467617282
 30
0.0
 40
5.000000000000057
  0
CIRCLE
  5
B7
330
1F
100
AcDbEntity
  8
PROFILE_INTERIOR
100
AcDbCircle
 10
289.7171656925
 20
237.2467617282
 30
0.0
 40
5.000000000000057
  0
CIRCLE
  5
B8
330
1F
100
AcDbEntity
  8
PROFILE_INTERIOR
100
AcDbCircle
 10
309.7171656925
 20
237.2467617282
 30
0.0
 40
5.0
  0
CIRCLE
  5
B9
330
1F
100
AcDbEntity
  8
PROFILE_INTERIOR
100
AcDbCircle
 10
309.7171656925
 20
257.2467617282
 30
0.0
 40
5.0
  0
CIRCLE
  5
BA
330
1F
100
AcDbEntity
  8
PROFILE_INTERIOR
100
AcDbCircle
 10
329.7171656925
 20
477.2467617282
 30
0.0
 40
5.0
  0
CIRCLE
  5
BB
330
1F
100
AcDbEntity
  8
PROFILE_INTERIOR
100
AcDbCircle
 10
329.7171656925
 20
457.2467617282
 30
0.0
 40
5.0
  0
CIRCLE
  5
BC
330
1F
100
AcDbEntity
  8
PROFILE_INTERIOR
100
AcDbCircle
 10
329.7171656925
 20
437.2467617282
 30
0.0
 40
5.0
  0
CIRCLE
  5
BD
330
1F
100
AcDbEntity
  8
PROFILE_INTERIOR
100
AcDbCircle
 10
329.7171656925
 20
417.2467617282
 30
0.0
 40
5.0
  0
CIRCLE
  5
BE
330
1F
100
AcDbEntity
  8
PROFILE_INTERIOR
100
AcDbCircle
 10
329.7171656925
 20
397.2467617282
 30
0.0
 40
5.0
  0
CIRCLE
  5
BF
330
1F
100
AcDbEntity
  8
PROFILE_INTERIOR
100
AcDbCircle
 10
329.7171656925
 20
337.2467617282
 30
0.0
 40
5.0
  0
CIRCLE
  5
C0
330
1F
100
AcDbEntity
  8
PROFILE_INTERIOR
100
AcDbCircle
 10
329.7171656925
 20
277.2467617282
 30
0.0
 40
5.0
  0
CIRCLE
  5
C1
330
1F
100
AcDbEntity
  8
PROFILE_INTERIOR
100
AcDbCircle
 10
329.7171656925
 20
297.2467617282
 30
0.0
 40
5.0
  0
CIRCLE
  5
C2
330
1F
100
AcDbEntity
  8
PROFILE_INTERIOR
100
AcDbCircle
 10
329.7171656925
 20
237.2467617282
 30
0.0
 40
5.0
  0
CIRCLE
  5
C3
330
1F
100
AcDbEntity
  8
PROFILE_INTERIOR
100
AcDbCircle
 10
329.7171656925
 20
257.2467617282
 30
0.0
 40
5.0
  0
CIRCLE
  5
C4
330
1F
100
AcDbEntity
  8
PROFILE_INTERIOR
100
AcDbCircle
 10
-141.999094393
 20
358.8529523536
 30
0.0
 40
14.0
  0
CIRCLE
  5
C5
330
1F
100
AcDbEntity
  8
PROFILE_INTERIOR
100
AcDbCircle
 10
-141.999094393
 20
292.2467617282
 30
0.0
 40
14.0
  0
CIRCLE
  5
C6
330
1F
100
AcDbEntity
  8
PROFILE_INTERIOR
100
AcDbCircle
 10
135.383002538
 20
235.2467617282
 30
0.0
 40
3.0
  0
CIRCLE
  5
C7
330
1F
100
AcDbEntity
  8
PROFILE_INTERIOR
100
AcDbCircle
 10
126.383002538
 20
235.2467617282
 30
0.0
 40
2.999999999999972
  0
CIRCLE
  5
C8
330
1F
100
AcDbEntity
  8
PROFILE_INTERIOR
100
AcDbCircle
 10
117.383002538
 20
235.2467617282
 30
0.0
 40
3.000000000000014
  0
CIRCLE
  5
C9
330
1F
100
AcDbEntity
  8
PROFILE_INTERIOR
100
AcDbCircle
 10
108.383002538
 20
235.2467617282
 30
0.0
 40
3.000000000000014
  0
CIRCLE
  5
CA
330
1F
100
AcDbEntity
  8
PROFILE_INTERIOR
100
AcDbCircle
 10
99.383002538
 20
235.2467617282
 30
0.0
 40
3.0
  0
CIRCLE
  5
CB
330
1F
100
AcDbEntity
  8
PROFILE_INTERIOR
100
AcDbCircle
 10
102.808423575
 20
252.4675161846
 30
0.0
 40
3.0
  0
CIRCLE
  5
CC
330
1F
100
AcDbEntity
  8
PROFILE_INTERIOR
100
AcDbCircle
 10
112.5631973846
 20
267.0665668816
 30
0.0
 40
3.000000000000014
  0
CIRCLE
  5
CD
330
1F
100
AcDbEntity
  8
PROFILE_INTERIOR
100
AcDbCircle
 10
127.1622480815
 20
276.8213406912
 30
0.0
 40
2.999999999999986
  0
CIRCLE
  5
CE
330
1F
100
AcDbEntity
  8
PROFILE_INTERIOR
100
AcDbCircle
 10
144.383002538
 20
280.2467617282
 30
0.0
 40
3.0
  0
CIRCLE
  5
CF
330
1F
100
AcDbEntity
  8
PROFILE_INTERIOR
100
AcDbCircle
 10
161.6037569944
 20
276.8213406912
 30
0.0
 40
3.0
  0
CIRCLE
  5
D0
330
1F
100
AcDbEntity
  8
PROFILE_INTERIOR
100
AcDbCircle
 10
176.2028076914
 20
267.0665668816
 30
0.0
 40
3.0
  0
CIRCLE
  5
D1
330
1F
100
AcDbEntity
  8
PROFILE_INTERIOR
100
AcDbCircle
 10
185.957581501
 20
252.4675161846
 30
0.0
 40
3.0
  0
CIRCLE
  5
D2
330
1F
100
AcDbEntity
  8
PROFILE_INTERIOR
100
AcDbCircle
 10
189.383002538
 20
235.2467617282
 30
0.0
 40
3.0
  0
CIRCLE
  5
D3
330
1F
100
AcDbEntity
  8
PROFILE_INTERIOR
100
AcDbCircle
 10
185.957581501
 20
218.0260072718
 30
0.0
 40
3.0
  0
CIRCLE
  5
D4
330
1F
100
AcDbEntity
  8
PROFILE_INTERIOR
100
AcDbCircle
 10
176.2028076914
 20
203.4269565748
 30
0.0
 40
3.0
  0
CIRCLE
  5
D5
330
1F
100
AcDbEntity
  8
PROFILE_INTERIOR
100
AcDbCircle
 10
161.6037569944
 20
193.6721827652
 30
0.0
 40
3.0
  0
CIRCLE
  5
D6
330
1F
100
AcDbEntity
  8
PROFILE_INTERIOR
100
AcDbCircle
 10
144.383002538
 20
190.2467617282
 30
0.0
 40
3.0
  0
CIRCLE
  5
D7
330
1F
100
AcDbEntity
  8
PROFILE_INTERIOR
100
AcDbCircle
 10
127.1622480815
 20
193.6721827652
 30
0.0
 40
2.999999999999986
  0
CIRCLE
  5
D8
330
1F
100
AcDbEntity
  8
PROFILE_INTERIOR
100
AcDbCircle
 10
112.5631973846
 20
203.4269565748
 30
0.0
 40
3.000000000000014
  0
CIRCLE
  5
D9
330
1F
100
AcDbEntity
  8
PROFILE_INTERIOR
100
AcDbCircle
 10
102.808423575
 20
218.0260072718
 30
0.0
 40
3.000000000000014
  0
CIRCLE
  5
DA
330
1F
100
AcDbEntity
  8
PROFILE_INTERIOR
100
AcDbCircle
 10
180.383002538
 20
235.2467617282
 30
0.0
 40
3.0
  0
CIRCLE
  5
DB
330
1F
100
AcDbEntity
  8
PROFILE_INTERIOR
100
AcDbCircle
 10
171.383002538
 20
235.2467617282
 30
0.0
 40
3.000000000000028
  0
CIRCLE
  5
DC
330
1F
100
AcDbEntity
  8
PROFILE_INTERIOR
100
AcDbCircle
 10
162.383002538
 20
235.2467617282
 30
0.0
 40
3.000000000000028
  0
CIRCLE
  5
DD
330
1F
100
AcDbEntity
  8
PROFILE_INTERIOR
100
AcDbCircle
 10
153.383002538
 20
235.2467617282
 30
0.0
 40
3.0
  0
CIRCLE
  5
DE
330
1F
100
AcDbEntity
  8
PROFILE_INTERIOR
100
AcDbCircle
 10
144.383002538
 20
244.2467617282
 30
0.0
 40
3.0
  0
CIRCLE
  5
DF
330
1F
100
AcDbEntity
  8
PROFILE_INTERIOR
100
AcDbCircle
 10
144.383002538
 20
253.2467617282
 30
0.0
 40
3.0
  0
CIRCLE
  5
E0
330
1F
100
AcDbEntity
  8
PROFILE_INTERIOR
100
AcDbCircle
 10
144.383002538
 20
262.2467617282
 30
0.0
 40
3.0
  0
CIRCLE
  5
E1
330
1F
100
AcDbEntity
  8
PROFILE_INTERIOR
100
AcDbCircle
 10
144.383002538
 20
271.2467617282
 30
0.0
 40
3.0
  0
CIRCLE
  5
E2
330
1F
100
AcDbEntity
  8
PROFILE_INTERIOR
100
AcDbCircle
 10
144.383002538
 20
226.2467617282
 30
0.0
 40
3.0
  0
CIRCLE
  5
E3
330
1F
100
AcDbEntity
  8
PROFILE_INTERIOR
100
AcDbCircle
 10
131.6550804766
 20
222.5188396668
 30
0.0
 40
3.0
  0
CIRCLE
  5
E4
330
1F
100
AcDbEntity
  8
PROFILE_INTERIOR
100
AcDbCircle
 10
119.4382551602
 20
224.9143090543
 30
0.0
 40
3.0
  0
CIRCLE
  5
E5
330
1F
100
AcDbEntity
  8
PROFILE_INTERIOR
100
AcDbCircle
 10
111.1233393676
 20
221.4701581631
 30
0.0
 40
3.0
  0
CIRCLE
  5
E6
330
1F
100
AcDbEntity
  8
PROFILE_INTERIOR
100
AcDbCircle
 10
144.383002538
 20
217.2467617282
 30
0.0
 40
3.0
  0
CIRCLE
  5
E7
330
1F
100
AcDbEntity
  8
PROFILE_INTERIOR
100
AcDbCircle
 10
144.383002538
 20
208.2467617282
 30
0.0
 40
3.0
  0
CIRCLE
  5
E8
330
1F
100
AcDbEntity
  8
PROFILE_INTERIOR
100
AcDbCircle
 10
144.383002538
 20
199.2467617282
 30
0.0
 40
3.0
  0
CIRCLE
  5
E9
330
1F
100
AcDbEntity
  8
PROFILE_INTERIOR
100
AcDbCircle
 10
125.2911194459
 20
216.1548786362
 30
0.0
 40
3.0
  0
CIRCLE
  5
EA
330
1F
100
AcDbEntity
  8
PROFILE_INTERIOR
100
AcDbCircle
 10
118.9271584152
 20
209.7909176055
 30
0.0
 40
3.000000000000014
  0
CIRCLE
  5
EB
330
1F
100
AcDbEntity
  8
PROFILE_INTERIOR
100
AcDbCircle
 10
134.0505498641
 20
210.3020143504
 30
0.0
 40
3.000000000000028
  0
CIRCLE
  5
EC
330
1F
100
AcDbEntity
  8
PROFILE_INTERIOR
100
AcDbCircle
 10
130.6063989728
 20
201.9870985578
 30
0.0
 40
3.000000000000028
  0
CIRCLE
  5
ED
330
1F
100
AcDbEntity
  8
PROFILE_INTERIOR
100
AcDbCircle
 10
111.1233393676
 20
249.0233652933
 30
0.0
 40
3.0
  0
CIRCLE
  5
EE
330
1F
100
AcDbEntity
  8
PROFILE_INTERIOR
100
AcDbCircle
 10
119.4382551602
 20
245.5792144021
 30
0.0
 40
3.0
  0
CIRCLE
  5
EF
330
1F
100
AcDbEntity
  8
PROFILE_INTERIOR
100
AcDbCircle
 10
125.2911194459
 20
254.3386448202
 30
0.0
 40
3.0
  0
CIRCLE
  5
F0
330
1F
100
AcDbEntity
  8
PROFILE_INTERIOR
100
AcDbCircle
 10
131.6550804766
 20
247.9746837896
 30
0.0
 40
3.0
  0
CIRCLE
  5
F1
330
1F
100
AcDbEntity
  8
PROFILE_INTERIOR
100
AcDbCircle
 10
118.9271584152
 20
260.7026058509
 30
0.0
 40
3.000000000000014
  0
CIRCLE
  5
F2
330
1F
100
AcDbEntity
  8
PROFILE_INTERIOR
100
AcDbCircle
 10
130.6063989728
 20
268.5064248986
 30
0.0
 40
3.000000000000028
  0
CIRCLE
  5
F3
330
1F
100
AcDbEntity
  8
PROFILE_INTERIOR
100
AcDbCircle
 10
134.0505498641
 20
260.191509106
 30
0.0
 40
3.000000000000028
  0
CIRCLE
  5
F4
330
1F
100
AcDbEntity
  8
PROFILE_INTERIOR
100
AcDbCircle
 10
158.1596061031
 20
268.5064248986
 30
0.0
 40
3.0
  0
CIRCLE
  5
F5
330
1F
100
AcDbEntity
  8
PROFILE_INTERIOR
100
AcDbCircle
 10
154.7154552118
 20
260.191509106
 30
0.0
 40
3.0
  0
CIRCLE
  5
F6
330
1F
100
AcDbEntity
  8
PROFILE_INTERIOR
100
AcDbCircle
 10
163.47488563
 20
254.3386448202
 30
0.0
 40
3.0
  0
CIRCLE
  5
F7
330
1F
100
AcDbEntity
  8
PROFILE_INTERIOR
100
AcDbCircle
 10
157.1109245993
 20
247.9746837896
 30
0.0
 40
3.0
  0
CIRCLE
  5
F8
330
1F
100
AcDbEntity
  8
PROFILE_INTERIOR
100
AcDbCircle
 10
169.8388466607
 20
260.7026058509
 30
0.0
 40
3.0
  0
CIRCLE
  5
F9
330
1F
100
AcDbEntity
  8
PROFILE_INTERIOR
100
AcDbCircle
 10
177.6426657084
 20
249.0233652933
 30
0.0
 40
3.0
  0
CIRCLE
  5
FA
330
1F
100
AcDbEntity
  8
PROFILE_INTERIOR
100
AcDbCircle
 10
169.3277499158
 20
245.5792144021
 30
0.0
 40
3.0
  0
CIRCLE
  5
FB
330
1F
100
AcDbEntity
  8
PROFILE_INTERIOR
100
AcDbCircle
 10
177.6426657084
 20
221.4701581631
 30
0.0
 40
3.0
  0
CIRCLE
  5
FC
330
1F
100
AcDbEntity
  8
PROFILE_INTERIOR
100
AcDbCircle
 10
169.3277499158
 20
224.9143090543
 30
0.0
 40
3.000000000000028
  0
CIRCLE
  5
FD
330
1F
100
AcDbEntity
  8
PROFILE_INTERIOR
100
AcDbCircle
 10
163.47488563
 20
216.1548786362
 30
0.0
 40
3.0
  0
CIRCLE
  5
FE
330
1F
100
AcDbEntity
  8
PROFILE_INTERIOR
100
AcDbCircle
 10
157.1109245993
 20
222.5188396668
 30
0.0
 40
3.0
  0
CIRCLE
  5
FF
330
1F
100
AcDbEntity
  8
PROFILE_INTERIOR
100
AcDbCircle
 10
169.8388466607
 20
209.7909176055
 30
0.0
 40
3.0
  0
CIRCLE
  5
100
330
1F
100
AcDbEntity
  8
PROFILE_INTERIOR
100
AcDbCircle
 10
158.1596061031
 20
201.9870985578
 30
0.0
 40
3.0
  0
CIRCLE
  5
101
330
1F
100
AcDbEntity
  8
PROFILE_INTERIOR
100
AcDbCircle
 10
154.7154552118
 20
210.3020143504
 30
0.0
 40
3.0
  0
CIRCLE
  5
102
330
1F
100
AcDbEntity
  8
PROFILE_INTERIOR
100
AcDbCircle
 10
135.383002538
 20
479.2467617282
 30
0.0
 40
3.0
  0
CIRCLE
  5
103
330
1F
100
AcDbEntity
  8
PROFILE_INTERIOR
100
AcDbCircle
 10
126.383002538
 20
479.2467617282
 30
0.0
 40
2.999999999999972
  0
CIRCLE
  5
104
330
1F
100
AcDbEntity
  8
PROFILE_INTERIOR
100
AcDbCircle
 10
117.383002538
 20
479.2467617282
 30
0.0
 40
3.000000000000014
  0
CIRCLE
  5
105
330
1F
100
AcDbEntity
  8
PROFILE_INTERIOR
100
AcDbCircle
 10
108.383002538
 20
479.2467617282
 30
0.0
 40
3.000000000000014
  0
CIRCLE
  5
106
330
1F
100
AcDbEntity
  8
PROFILE_INTERIOR
100
AcDbCircle
 10
99.383002538
 20
479.2467617282
 30
0.0
 40
3.0
  0
CIRCLE
  5
107
330
1F
100
AcDbEntity
  8
PROFILE_INTERIOR
100
AcDbCircle
 10
102.808423575
 20
496.4675161846
 30
0.0
 40
3.0
  0
CIRCLE
  5
108
330
1F
100
AcDbEntity
  8
PROFILE_INTERIOR
100
AcDbCircle
 10
112.5631973846
 20
511.0665668816
 30
0.0
 40
3.000000000000014
  0
CIRCLE
  5
109
330
1F
100
AcDbEntity
  8
PROFILE_INTERIOR
100
AcDbCircle
 10
127.1622480815
 20
520.8213406912
 30
0.0
 40
2.999999999999986
  0
CIRCLE
  5
10A
330
1F
100
AcDbEntity
  8
PROFILE_INTERIOR
100
AcDbCircle
 10
144.383002538
 20
524.2467617282
 30
0.0
 40
3.0
  0
CIRCLE
  5
10B
330
1F
100
AcDbEntity
  8
PROFILE_INTERIOR
100
AcDbCircle
 10
161.6037569944
 20
520.8213406912
 30
0.0
 40
3.0
  0
CIRCLE
  5
10C
330
1F
100
AcDbEntity
  8
PROFILE_INTERIOR
100
AcDbCircle
 10
176.2028076914
 20
511.0665668816
 30
0.0
 40
3.0
  0
CIRCLE
  5
10D
330
1F
100
AcDbEntity
  8
PROFILE_INTERIOR
100
AcDbCircle
 10
185.957581501
 20
496.4675161846
 30
0.0
 40
3.0
  0
CIRCLE
  5
10E
330
1F
100
AcDbEntity
  8
PROFILE_INTERIOR
100
AcDbCircle
 10
189.383002538
 20
479.2467617282
 30
0.0
 40
3.0
  0
CIRCLE
  5
10F
330
1F
100
AcDbEntity
  8
PROFILE_INTERIOR
100
AcDbCircle
 10
185.957581501
 20
462.0260072718
 30
0.0
 40
3.0
  0
CIRCLE
  5
110
330
1F
100
AcDbEntity
  8
PROFILE_INTERIOR
100
AcDbCircle
 10
176.2028076914
 20
447.4269565748
 30
0.0
 40
3.0
  0
CIRCLE
  5
111
330
1F
100
AcDbEntity
  8
PROFILE_INTERIOR
100
AcDbCircle
 10
161.6037569944
 20
437.6721827652
 30
0.0
 40
3.0
  0
CIRCLE
  5
112
330
1F
100
AcDbEntity
  8
PROFILE_INTERIOR
100
AcDbCircle
 10
144.383002538
 20
434.2467617282
 30
0.0
 40
3.0
  0
CIRCLE
  5
113
330
1F
100
AcDbEntity
  8
PROFILE_INTERIOR
100
AcDbCircle
 10
127.1622480815
 20
437.6721827652
 30
0.0
 40
2.999999999999986
  0
CIRCLE
  5
114
330
1F
100
AcDbEntity
  8
PROFILE_INTERIOR
100
AcDbCircle
 10
112.5631973846
 20
447.4269565748
 30
0.0
 40
3.000000000000014
  0
CIRCLE
  5
115
330
1F
100
AcDbEntity
  8
PROFILE_INTERIOR
100
AcDbCircle
 10
102.808423575
 20
462.0260072718
 30
0.0
 40
3.000000000000014
  0
CIRCLE
  5
116
330
1F
100
AcDbEntity
  8
PROFILE_INTERIOR
100
AcDbCircle
 10
180.383002538
 20
479.2467617282
 30
0.0
 40
3.0
  0
CIRCLE
  5
117
330
1F
100
AcDbEntity
  8
PROFILE_INTERIOR
100
AcDbCircle
 10
171.383002538
 20
479.2467617282
 30
0.0
 40
3.000000000000028
  0
CIRCLE
  5
118
330
1F
100
AcDbEntity
  8
PROFILE_INTERIOR
100
AcDbCircle
 10
162.383002538
 20
479.2467617282
 30
0.0
 40
3.000000000000028
  0
CIRCLE
  5
119
330
1F
100
AcDbEntity
  8
PROFILE_INTERIOR
100
AcDbCircle
 10
153.383002538
 20
479.2467617282
 30
0.0
 40
3.0
  0
CIRCLE
  5
11A
330
1F
100
AcDbEntity
  8
PROFILE_INTERIOR
100
AcDbCircle
 10
144.383002538
 20
488.2467617282
 30
0.0
 40
3.0
  0
CIRCLE
  5
11B
330
1F
100
AcDbEntity
  8
PROFILE_INTERIOR
100
AcDbCircle
 10
144.383002538
 20
497.2467617282
 30
0.0
 40
3.0
  0
CIRCLE
  5
11C
330
1F
100
AcDbEntity
  8
PROFILE_INTERIOR
100
AcDbCircle
 10
144.383002538
 20
506.2467617282
 30
0.0
 40
3.0
  0
CIRCLE
  5
11D
330
1F
100
AcDbEntity
  8
PROFILE_INTERIOR
100
AcDbCircle
 10
144.383002538
 20
515.2467617282
 30
0.0
 40
3.0
  0
CIRCLE
  5
11E
330
1F
100
AcDbEntity
  8
PROFILE_INTERIOR
100
AcDbCircle
 10
144.383002538
 20
470.2467617282
 30
0.0
 40
3.0
  0
CIRCLE
  5
11F
330
1F
100
AcDbEntity
  8
PROFILE_INTERIOR
100
AcDbCircle
 10
131.6550804766
 20
466.5188396668
 30
0.0
 40
3.0
  0
CIRCLE
  5
120
330
1F
100
AcDbEntity
  8
PROFILE_INTERIOR
100
AcDbCircle
 10
119.4382551602
 20
468.9143090543
 30
0.0
 40
3.0
  0
CIRCLE
  5
121
330
1F
100
AcDbEntity
  8
PROFILE_INTERIOR
100
AcDbCircle
 10
111.1233393676
 20
465.4701581631
 30
0.0
 40
3.0
  0
CIRCLE
  5
122
330
1F
100
AcDbEntity
  8
PROFILE_INTERIOR
100
AcDbCircle
 10
144.383002538
 20
461.2467617282
 30
0.0
 40
3.0
  0
CIRCLE
  5
123
330
1F
100
AcDbEntity
  8
PROFILE_INTERIOR
100
AcDbCircle
 10
144.383002538
 20
452.2467617282
 30
0.0
 40
3.0
  0
CIRCLE
  5
124
330
1F
100
AcDbEntity
  8
PROFILE_INTERIOR
100
AcDbCircle
 10
144.383002538
 20
443.2467617282
 30
0.0
 40
3.0
  0
CIRCLE
  5
125
330
1F
100
AcDbEntity
  8
PROFILE_INTERIOR
100
AcDbCircle
 10
125.2911194459
 20
460.1548786362
 30
0.0
 40
3.0
  0
CIRCLE
  5
126
330
1F
100
AcDbEntity
  8
PROFILE_INTERIOR
100
AcDbCircle
 10
118.9271584152
 20
453.7909176055
 30
0.0
 40
3.000000000000014
  0
CIRCLE
  5
127
330
1F
100
AcDbEntity
  8
PROFILE_INTERIOR
100
AcDbCircle
 10
134.0505498641
 20
454.3020143504
 30
0.0
 40
3.000000000000028
  0
CIRCLE
  5
128
330
1F
100
AcDbEntity
  8
PROFILE_INTERIOR
100
AcDbCircle
 10
130.6063989728
 20
445.9870985578
 30
0.0
 40
3.000000000000028
  0
CIRCLE
  5
129
330
1F
100
AcDbEntity
  8
PROFILE_INTERIOR
100
AcDbCircle
 10
111.1233393676
 20
493.0233652933
 30
0.0
 40
3.0
  0
CIRCLE
  5
12A
330
1F
100
AcDbEntity
  8
PROFILE_INTERIOR
100
AcDbCircle
 10
119.4382551602
 20
489.5792144021
 30
0.0
 40
3.0
  0
CIRCLE
  5
12B
330
1F
100
AcDbEntity
  8
PROFILE_INTERIOR
100
AcDbCircle
 10
125.2911194459
 20
498.3386448202
 30
0.0
 40
3.0
  0
CIRCLE
  5
12C
330
1F
100
AcDbEntity
  8
PROFILE_INTERIOR
100
AcDbCircle
 10
131.6550804766
 20
491.9746837896
 30
0.0
 40
3.0
  0
CIRCLE
  5
12D
330
1F
100
AcDbEntity
  8
PROFILE_INTERIOR
100
AcDbCircle
 10
118.9271584152
 20
504.7026058509
 30
0.0
 40
3.000000000000014
  0
CIRCLE
  5
12E
330
1F
100
AcDbEntity
  8
PROFILE_INTERIOR
100
AcDbCircle
 10
130.6063989728
 20
512.5064248986
 30
0.0
 40
3.000000000000028
  0
CIRCLE
  5
12F
330
1F
100
AcDbEntity
  8
PROFILE_INTERIOR
100
AcDbCircle
 10
134.0505498641
 20
504.191509106
 30
0.0
 40
3.000000000000028
  0
CIRCLE
  5
130
330
1F
100
AcDbEntity
  8
PROFILE_INTERIOR
100
AcDbCircle
 10
158.1596061031
 20
512.5064248986
 30
0.0
 40
3.0
  0
CIRCLE
  5
131
330
1F
100
AcDbEntity
  8
PROFILE_INTERIOR
100
AcDbCircle
 10
154.7154552118
 20
504.191509106
 30
0.0
 40
3.0
  0
CIRCLE
  5
132
330
1F
100
AcDbEntity
  8
PROFILE_INTERIOR
100
AcDbCircle
 10
163.47488563
 20
498.3386448202
 30
0.0
 40
3.0
  0
CIRCLE
  5
133
330
1F
100
AcDbEntity
  8
PROFILE_INTERIOR
100
AcDbCircle
 10
157.1109245993
 20
491.9746837896
 30
0.0
 40
3.0
  0
CIRCLE
  5
134
330
1F
100
AcDbEntity
  8
PROFILE_INTERIOR
100
AcDbCircle
 10
169.8388466607
 20
504.7026058509
 30
0.0
 40
3.0
  0
CIRCLE
  5
135
330
1F
100
AcDbEntity
  8
PROFILE_INTERIOR
100
AcDbCircle
 10
177.6426657084
 20
493.0233652933
 30
0.0
 40
3.0
  0
CIRCLE
  5
136
330
1F
100
AcDbEntity
  8
PROFILE_INTERIOR
100
AcDbCircle
 10
169.3277499158
 20
489.5792144021
 30
0.0
 40
3.0
  0
CIRCLE
  5
137
330
1F
100
AcDbEntity
  8
PROFILE_INTERIOR
100
AcDbCircle
 10
177.6426657084
 20
465.4701581631
 30
0.0
 40
3.0
  0
CIRCLE
  5
138
330
1F
100
AcDbEntity
  8
PROFILE_INTERIOR
100
AcDbCircle
 10
169.3277499158
 20
468.9143090543
 30
0.0
 40
3.000000000000028
  0
CIRCLE
  5
139
330
1F
100
AcDbEntity
  8
PROFILE_INTERIOR
100
AcDbCircle
 10
163.47488563
 20
460.1548786362
 30
0.0
 40
3.0
  0
CIRCLE
  5
13A
330
1F
100
AcDbEntity
  8
PROFILE_INTERIOR
100
AcDbCircle
 10
157.1109245993
 20
466.5188396668
 30
0.0
 40
3.0
  0
CIRCLE
  5
13B
330
1F
100
AcDbEntity
  8
PROFILE_INTERIOR
100
AcDbCircle
 10
169.8388466607
 20
453.7909176055
 30
0.0
 40
3.0
  0
CIRCLE
  5
13C
330
1F
100
AcDbEntity
  8
PROFILE_INTERIOR
100
AcDbCircle
 10
158.1596061031
 20
445.9870985578
 30
0.0
 40
3.0
  0
CIRCLE
  5
13D
330
1F
100
AcDbEntity
  8
PROFILE_INTERIOR
100
AcDbCircle
 10
154.7154552118
 20
454.3020143504
 30
0.0
 40
3.0
  0
ARC
  5
13E
330
1F
100
AcDbEntity
  8
PROFILE_EXTERIOR
100
AcDbCircle
 10
-90.5977083571
 20
1122.7368205393
 30
0.0
 40
7.499999999976075
100
AcDbArc
 50
336.6290403691
 51
23.3254248592
  0
ARC
  5
13F
330
1F
100
AcDbEntity
  8
PROFILE_EXTERIOR
100
AcDbCircle
 10
29.2482551853
 20
852.2575480418
 30
0.0
 40
59.99999999999552
100
AcDbArc
 50
230.0933722435
 51
252.387229347
  0
ARC
  5
140
330
1F
100
AcDbEntity
  8
PROFILE_EXTERIOR
100
AcDbCircle
 10
163.5913486773
 20
1012.8923214649
 30
0.0
 40
269.4077295651987
100
AcDbArc
 50
156.629040369
 51
230.0933722435
  0
ARC
  5
141
330
1F
100
AcDbEntity
  8
PROFILE_EXTERIOR
100
AcDbCircle
 10
121.6195941397
 20
744.2443021222
 30
0.0
 40
14.99999999994986
100
AcDbArc
 50
337.6544110239
 51
72.3872293472
  0
ARC
  5
142
330
1F
100
AcDbEntity
  8
PROFILE_EXTERIOR
100
AcDbCircle
 10
-140.5774206038
 20
1194.4496430434
 30
0.0
 40
24.99999999998666
100
AcDbArc
 50
23.325424859
 51
114.9231859346
  0
ARC
  5
143
330
1F
100
AcDbEntity
  8
PROFILE_EXTERIOR
100
AcDbCircle
 10
94.4243330431
 20
678.0853950322
 30
0.0
 40
14.9999999999919
100
AcDbArc
 50
264.0765985224
 51
337.6544110239
  0
CIRCLE
  5
144
330
1F
100
AcDbEntity
  8
PROFILE_INTERIOR
100
AcDbCircle
 10
-398.1654754625
 20
307.2467617282
 30
0.0
 40
2.5
  0
CIRCLE
  5
145
330
1F
100
AcDbEntity
  8
PROFILE_INTERIOR
100
AcDbCircle
 10
-398.1654754625
 20
407.2467617282
 30
0.0
 40
2.5
  0
CIRCLE
  5
146
330
1F
100
AcDbEntity
  8
PROFILE_INTERIOR
100
AcDbCircle
 10
-498.1654754625
 20
407.2467617282
 30
0.0
 40
2.5
  0
CIRCLE
  5
147
330
1F
100
AcDbEntity
  8
PROFILE_INTERIOR
100
AcDbCircle
 10
-498.1654754625
 20
307.2467617282
 30
0.0
 40
2.5
  0
CIRCLE
  5
148
330
1F
100
AcDbEntity
  8
PROFILE_INTERIOR
100
AcDbCircle
 10
302.5740510034
 20
594.7467617282
 30
0.0
 40
1.600000000000023
  0
CIRCLE
  5
149
330
1F
100
AcDbEntity
  8
PROFILE_INTERIOR
100
AcDbCircle
 10
570.5740510034
 20
594.7467617282
 30
0.0
 40
1.600000000000023
  0
CIRCLE
  5
14A
330
1F
100
AcDbEntity
  8
PROFILE_INTERIOR
100
AcDbCircle
 10
302.5740510034
 20
119.7467617282
 30
0.0
 40
1.600000000000023
  0
CIRCLE
  5
14B
330
1F
100
AcDbEntity
  8
PROFILE_INTERIOR
100
AcDbCircle
 10
602.5740510034
 20
119.7467617282
 30
0.0
 40
1.600000000000023
  0
CIRCLE
  5
14C
330
1F
100
AcDbEntity
  8
PROFILE_INTERIOR
100
AcDbCircle
 10
-817.356523928
 20
594.7467617282
 30
0.0
 40
1.600000000000136
  0
CIRCLE
  5
14D
330
1F
100
AcDbEntity
  8
PROFILE_INTERIOR
100
AcDbCircle
 10
-610.356523928
 20
594.7467617282
 30
0.0
 40
1.600000000000023
  0
CIRCLE
  5
14E
330
1F
100
AcDbEntity
  8
PROFILE_INTERIOR
100
AcDbCircle
 10
-817.356523928
 20
119.7467617282
 30
0.0
 40
1.600000000000136
  0
CIRCLE
  5
14F
330
1F
100
AcDbEntity
  8
PROFILE_INTERIOR
100
AcDbCircle
 10
-610.356523928
 20
119.7467617282
 30
0.0
 40
1.600000000000023
  0
CIRCLE
  5
150
330
1F
100
AcDbEntity
  8
PROFILE_INTERIOR
100
AcDbCircle
 10
-171.0307756959
 20
1179.7473397481
 30
0.0
 40
1.599999999999994
  0
CIRCLE
  5
151
330
1F
100
AcDbEntity
  8
PROFILE_INTERIOR
100
AcDbCircle
 10
-214.8169497677
 20
1159.5224610101
 30
0.0
 40
1.599999999999966
  0
CIRCLE
  5
152
330
1F
100
AcDbEntity
  8
PROFILE_INTERIOR
100
AcDbCircle
 10
-139.3422136014
 20
1106.2571056515
 30
0.0
 40
1.599999999999994
  0
CIRCLE
  5
153
330
1F
100
AcDbEntity
  8
PROFILE_INTERIOR
100
AcDbCircle
 10
-208.7661820286
 20
1074.2242952519
 30
0.0
 40
1.599999999999994
  0
CIRCLE
  5
154
330
1F
100
AcDbEntity
  8
PROFILE_INTERIOR
100
AcDbCircle
 10
-257.4056837914
 20
929.1341455988
 30
0.0
 40
1.599999999999994
  0
CIRCLE
  5
155
330
1F
100
AcDbEntity
  8
PROFILE_INTERIOR
100
AcDbCircle
 10
-257.4056837914
 20
1039.1341455988
 30
0.0
 40
1.599999999999994
  0
CIRCLE
  5
156
330
1F
100
AcDbEntity
  8
PROFILE_INTERIOR
100
AcDbCircle
 10
-257.4056837914
 20
819.1341455988
 30
0.0
 40
1.599999999999994
  0
CIRCLE
  5
157
330
1F
100
AcDbEntity
  8
PROFILE_INTERIOR
100
AcDbCircle
 10
-85.4579032373
 20
705.2943006477
 30
0.0
 40
1.600000000000009
  0
CIRCLE
  5
158
330
1F
100
AcDbEntity
  8
PROFILE_INTERIOR
100
AcDbCircle
 10
-162.3214942722
 20
713.2691103135
 30
0.0
 40
1.599999999999994
  0
CIRCLE
  5
159
330
1F
100
AcDbEntity
  8
PROFILE_INTERIOR
100
AcDbCircle
 10
-8.5766580423
 20
697.4915220867
 30
0.0
 40
1.600000000000001
  0
CIRCLE
  5
15A
330
1F
100
AcDbEntity
  8
PROFILE_INTERIOR
100
AcDbCircle
 10
10.3735910314
 20
766.4461274832
 30
0.0
 40
1.600000000000001
  0
CIRCLE
  5
15B
330
1F
100
AcDbEntity
  8
PROFILE_INTERIOR
100
AcDbCircle
 10
73.185996602
 20
746.5403518905
 30
0.0
 40
1.600000000000009
  0
CIRCLE
  5
15C
330
1F
100
AcDbEntity
  8
PROFILE_INTERIOR
100
AcDbCircle
 10
91.2506617187
 20
705.8730439163
 30
0.0
 40
1.599999999999994
  0
ARC
  5
15D
330
1F
100
AcDbEntity
  8
PROFILE_EXTERIOR
100
AcDbCircle
 10
433.3112023594
 20
1122.7368205393
 30
0.0
 40
7.499999999976136
100
AcDbArc
 50
156.6745751408
 51
203.3709596309
  0
ARC
  5
15E
330
1F
100
AcDbEntity
  8
PROFILE_EXTERIOR
100
AcDbCircle
 10
313.465238817
 20
852.2575480419
 30
0.0
 40
60.00000000000019
100
AcDbArc
 50
287.612770653
 51
309.9066277565
  0
ARC
  5
15F
330
1F
100
AcDbEntity
  8
PROFILE_EXTERIOR
100
AcDbCircle
 10
179.122145325
 20
1012.8923214649
 30
0.0
 40
269.4077295652166
100
AcDbArc
 50
309.9066277565
 51
23.370959631
  0
ARC
  5
160
330
1F
100
AcDbEntity
  8
PROFILE_EXTERIOR
100
AcDbCircle
 10
221.0938998626
 20
744.2443021223
 30
0.0
 40
14.99999999995111
100
AcDbArc
 50
107.6127706528
 51
202.3455889761
  0
ARC
  5
161
330
1F
100
AcDbEntity
  8
PROFILE_EXTERIOR
100
AcDbCircle
 10
483.2909146062
 20
1194.4496430435
 30
0.0
 40
24.99999999998636
100
AcDbArc
 50
65.0768140654
 51
156.6745751413
  0
ARC
  5
162
330
1F
100
AcDbEntity
  8
PROFILE_EXTERIOR
100
AcDbCircle
 10
248.2891609592
 20
678.0853950322
 30
0.0
 40
14.99999999999184
100
AcDbArc
 50
202.3455889761
 51
275.9234014776
  0
CIRCLE
  5
163
330
1F
100
AcDbEntity
  8
PROFILE_INTERIOR
100
AcDbCircle
 10
-141.999094393
 20
595.2467617282
 30
0.0
 40
1.599999999999994
  0
CIRCLE
  5
164
330
1F
100
AcDbEntity
  8
PROFILE_INTERIOR
100
AcDbCircle
 10
-141.999094393
 20
119.2467617282
 30
0.0
 40
1.599999999999994
  0
CIRCLE
  5
165
330
1F
100
AcDbEntity
  8
PROFILE_INTERIOR
100
AcDbCircle
 10
108.383002538
 20
595.2467617282
 30
0.0
 40
1.600000000000009
  0
CIRCLE
  5
166
330
1F
100
AcDbEntity
  8
PROFILE_INTERIOR
100
AcDbCircle
 10
180.383002538
 20
595.2467617282
 30
0.0
 40
1.599999999999994
  0
CIRCLE
  5
167
330
1F
100
AcDbEntity
  8
PROFILE_INTERIOR
100
AcDbCircle
 10
108.383002538
 20
119.2467617282
 30
0.0
 40
1.600000000000009
  0
CIRCLE
  5
168
330
1F
100
AcDbEntity
  8
PROFILE_INTERIOR
100
AcDbCircle
 10
180.383002538
 20
119.2467617282
 30
0.0
 40
1.599999999999994
  0
CIRCLE
  5
169
330
1F
100
AcDbEntity
  8
PROFILE_INTERIOR
100
AcDbCircle
 10
-51.3080459275
 20
595.2467617282
 30
0.0
 40
1.599999999999994
  0
CIRCLE
  5
16A
330
1F
100
AcDbEntity
  8
PROFILE_INTERIOR
100
AcDbCircle
 10
20.6919540725
 20
595.2467617282
 30
0.0
 40
1.600000000000001
  0
CIRCLE
  5
16B
330
1F
100
AcDbEntity
  8
PROFILE_INTERIOR
100
AcDbCircle
 10
-51.3080459275
 20
119.2467617282
 30
0.0
 40
1.599999999999994
  0
CIRCLE
  5
16C
330
1F
100
AcDbEntity
  8
PROFILE_INTERIOR
100
AcDbCircle
 10
20.6919540725
 20
119.2467617282
 30
0.0
 40
1.600000000000001
  0
CIRCLE
  5
16D
330
1F
100
AcDbEntity
  8
PROFILE_INTERIOR
100
AcDbCircle
 10
46.9658647421
 20
722.994799286
 30
0.0
 40
14.0
  0
CIRCLE
  5
16E
330
1F
100
AcDbEntity
  8
PROFILE_INTERIOR
100
AcDbCircle
 10
495.3157147088
 20
409.7467617282
 30
0.0
 40
1.749999999999943
  0
CIRCLE
  5
16F
330
1F
100
AcDbEntity
  8
PROFILE_INTERIOR
100
AcDbCircle
 10
495.3157147088
 20
304.7467617282
 30
0.0
 40
1.749999999999943
  0
CIRCLE
  5
170
330
1F
100
AcDbEntity
  8
PROFILE_INTERIOR
100
AcDbCircle
 10
600.3157147088
 20
304.7467617282
 30
0.0
 40
1.75
  0
CIRCLE
  5
171
330
1F
100
AcDbEntity
  8
PROFILE_INTERIOR
100
AcDbCircle
 10
600.3157147088
 20
409.7467617282
 30
0.0
 40
1.75
  0
CIRCLE
  5
172
330
1F
100
AcDbEntity
  8
PROFILE_INTERIOR
100
AcDbCircle
 10
309.7171656925
 20
357.2467617282
 30
0.0
 40
5.0
  0
CIRCLE
  5
173
330
1F
100
AcDbEntity
  8
PROFILE_INTERIOR
100
AcDbCircle
 10
329.7171656925
 20
357.2467617282
 30
0.0
 40
5.0
  0
CIRCLE
  5
174
330
1F
100
AcDbEntity
  8
PROFILE_INTERIOR
100
AcDbCircle
 10
-713.856523928
 20
594.7467617282
 30
0.0
 40
1.600000000000136
  0
CIRCLE
  5
175
330
1F
100
AcDbEntity
  8
PROFILE_INTERIOR
100
AcDbCircle
 10
-713.856523928
 20
119.7467617282
 30
0.0
 40
1.600000000000136
  0
CIRCLE
  5
176
330
1F
100
AcDbEntity
  8
PROFILE_INTERIOR
100
AcDbCircle
 10
-277.8179228507
 20
411.4967617282
 30
0.0
 40
14.00000000000006
  0
CIRCLE
  5
177
330
1F
100
AcDbEntity
  8
PROFILE_INTERIOR
100
AcDbCircle
 10
-240.8179228507
 20
517.7467617282
 30
0.0
 40
14.0
  0
CIRCLE
  5
178
330
1F
100
AcDbEntity
  8
PROFILE_INTERIOR
100
AcDbCircle
 10
-280.8179228507
 20
517.7467617282
 30
0.0
 40
14.00000000000006
  0
CIRCLE
  5
179
330
1F
100
AcDbEntity
  8
PROFILE_INTERIOR
100
AcDbCircle
 10
-258.8179228507
 20
478.4967617282
 30
0.0
 40
14.00000000000003
  0
CIRCLE
  5
17A
330
1F
100
AcDbEntity
  8
PROFILE_INTERIOR
100
AcDbCircle
 10
-298.8179228507
 20
478.4967617282
 30
0.0
 40
14.0
  0
CIRCLE
  5
17B
330
1F
100
AcDbEntity
  8
PROFILE_INTERIOR
100
AcDbCircle
 10
-240.8179228507
 20
282.4967617282
 30
0.0
 40
14.0
  0
CIRCLE
  5
17C
330
1F
100
AcDbEntity
  8
PROFILE_INTERIOR
100
AcDbCircle
 10
-280.8179228507
 20
282.4967617282
 30
0.0
 40
14.00000000000006
  0
CIRCLE
  5
17D
330
1F
100
AcDbEntity
  8
PROFILE_INTERIOR
100
AcDbCircle
 10
-258.8179228507
 20
243.2467617282
 30
0.0
 40
14.00000000000003
  0
CIRCLE
  5
17E
330
1F
100
AcDbEntity
  8
PROFILE_INTERIOR
100
AcDbCircle
 10
-298.8179228507
 20
243.2467617282
 30
0.0
 40
14.0
  0
CIRCLE
  5
17F
330
1F
100
AcDbEntity
  8
PROFILE_INTERIOR
100
AcDbCircle
 10
-277.8179228507
 20
176.2467617282
 30
0.0
 40
14.00000000000006
  0
CIRCLE
  5
180
330
1F
100
AcDbEntity
  8
PROFILE_INTERIOR
100
AcDbCircle
 10
-226.8179228507
 20
595.2467617282
 30
0.0
 40
1.599999999999994
  0
CIRCLE
  5
181
330
1F
100
AcDbEntity
  8
PROFILE_INTERIOR
100
AcDbCircle
 10
-326.8179228507
 20
595.2467617282
 30
0.0
 40
1.600000000000023
  0
CIRCLE
  5
182
330
1F
100
AcDbEntity
  8
PROFILE_INTERIOR
100
AcDbCircle
 10
-226.8179228507
 20
119.2467617282
 30
0.0
 40
1.599999999999994
  0
CIRCLE
  5
183
330
1F
100
AcDbEntity
  8
PROFILE_INTERIOR
100
AcDbCircle
 10
-326.8179228507
 20
119.2467617282
 30
0.0
 40
1.600000000000023
  0
CIRCLE
  5
184
330
1F
100
AcDbEntity
  8
PROFILE_INTERIOR
100
AcDbCircle
 10
-240.8179228507
 20
556.9967617282
 30
0.0
 40
14.0
  0
CIRCLE
  5
185
330
1F
100
AcDbEntity
  8
PROFILE_INTERIOR
100
AcDbCircle
 10
-280.8179228507
 20
556.9967617282
 30
0.0
 40
14.00000000000006
  0
CIRCLE
  5
186
330
1F
100
AcDbEntity
  8
PROFILE_INTERIOR
100
AcDbCircle
 10
-240.8179228507
 20
321.7467617282
 30
0.0
 40
14.0
  0
CIRCLE
  5
187
330
1F
100
AcDbEntity
  8
PROFILE_INTERIOR
100
AcDbCircle
 10
-280.8179228507
 20
321.7467617282
 30
0.0
 40
14.00000000000006
  0
CIRCLE
  5
188
330
1F
100
AcDbEntity
  8
PROFILE_INTERIOR
100
AcDbCircle
 10
-141.999094393
 20
542.2872876862
 30
0.0
 40
14.0
  0
CIRCLE
  5
189
330
1F
100
AcDbEntity
  8
PROFILE_INTERIOR
100
AcDbCircle
 10
513.7442696982
 20
1179.7473397481
 30
0.0
 40
1.600000000000023
  0
CIRCLE
  5
18A
330
1F
100
AcDbEntity
  8
PROFILE_INTERIOR
100
AcDbCircle
 10
557.53044377
 20
1159.5224610101
 30
0.0
 40
1.600000000000023
  0
CIRCLE
  5
18B
330
1F
100
AcDbEntity
  8
PROFILE_INTERIOR
100
AcDbCircle
 10
482.0557076037
 20
1106.2571056515
 30
0.0
 40
1.600000000000023
  0
CIRCLE
  5
18C
330
1F
100
AcDbEntity
  8
PROFILE_INTERIOR
100
AcDbCircle
 10
551.4796760308
 20
1074.2242952519
 30
0.0
 40
1.600000000000023
  0
CIRCLE
  5
18D
330
1F
100
AcDbEntity
  8
PROFILE_INTERIOR
100
AcDbCircle
 10
600.1191777937
 20
929.1341455988
 30
0.0
 40
1.600000000000023
  0
CIRCLE
  5
18E
330
1F
100
AcDbEntity
  8
PROFILE_INTERIOR
100
AcDbCircle
 10
600.1191777937
 20
1039.1341455988
 30
0.0
 40
1.600000000000023
  0
CIRCLE
  5
18F
330
1F
100
AcDbEntity
  8
PROFILE_INTERIOR
100
AcDbCircle
 10
600.1191777937
 20
819.1341455988
 30
0.0
 40
1.600000000000023
  0
CIRCLE
  5
190
330
1F
100
AcDbEntity
  8
PROFILE_INTERIOR
100
AcDbCircle
 10
428.1713972396
 20
705.2943006477
 30
0.0
 40
1.600000000000023
  0
CIRCLE
  5
191
330
1F
100
AcDbEntity
  8
PROFILE_INTERIOR
100
AcDbCircle
 10
505.0349882745
 20
713.2691103135
 30
0.0
 40
1.600000000000023
  0
CIRCLE
  5
192
330
1F
100
AcDbEntity
  8
PROFILE_INTERIOR
100
AcDbCircle
 10
351.2901520446
 20
697.4915220867
 30
0.0
 40
1.600000000000023
  0
CIRCLE
  5
193
330
1F
100
AcDbEntity
  8
PROFILE_INTERIOR
100
AcDbCircle
 10
332.3399029709
 20
766.4461274832
 30
0.0
 40
1.60000000000008
  0
CIRCLE
  5
194
330
1F
100
AcDbEntity
  8
PROFILE_INTERIOR
100
AcDbCircle
 10
269.5274974003
 20
746.5403518905
 30
0.0
 40
1.599999999999966
  0
CIRCLE
  5
195
330
1F
100
AcDbEntity
  8
PROFILE_INTERIOR
100
AcDbCircle
 10
251.4628322836
 20
705.8730439163
 30
0.0
 40
1.599999999999994
  0
CIRCLE
  5
196
330
1F
100
AcDbEntity
  8
PROFILE_INTERIOR
100
AcDbCircle
 10
295.7476292602
 20
722.994799286
 30
0.0
 40
14.0
  0
CIRCLE
  5
197
330
1F
100
AcDbEntity
  8
PROFILE_INTERIOR
100
AcDbCircle
 10
289.7171656925
 20
397.2467617282
 30
0.0
 40
5.000000000000057
  0
CIRCLE
  5
198
330
1F
100
AcDbEntity
  8
PROFILE_INTERIOR
100
AcDbCircle
 10
289.7171656925
 20
377.2467617282
 30
0.0
 40
5.000000000000057
  0
CIRCLE
  5
199
330
1F
100
AcDbEntity
  8
PROFILE_INTERIOR
100
AcDbCircle
 10
289.7171656925
 20
317.2467617282
 30
0.0
 40
5.000000000000057
  0
CIRCLE
  5
19A
330
1F
100
AcDbEntity
  8
PROFILE_INTERIOR
100
AcDbCircle
 10
289.7171656925
 20
337.2467617282
 30
0.0
 40
5.000000000000057
  0
CIRCLE
  5
19B
330
1F
100
AcDbEntity
  8
PROFILE_INTERIOR
100
AcDbCircle
 10
289.7171656925
 20
357.2467617282
 30
0.0
 40
5.000000000000057
  0
CIRCLE
  5
19C
330
1F
100
AcDbEntity
  8
PROFILE_INTERIOR
100
AcDbCircle
 10
349.7171656925
 20
457.2467617282
 30
0.0
 40
5.0
  0
CIRCLE
  5
19D
330
1F
100
AcDbEntity
  8
PROFILE_INTERIOR
100
AcDbCircle
 10
349.7171656925
 20
437.2467617282
 30
0.0
 40
5.0
  0
CIRCLE
  5
19E
330
1F
100
AcDbEntity
  8
PROFILE_INTERIOR
100
AcDbCircle
 10
349.7171656925
 20
417.2467617282
 30
0.0
 40
5.0
  0
CIRCLE
  5
19F
330
1F
100
AcDbEntity
  8
PROFILE_INTERIOR
100
AcDbCircle
 10
349.7171656925
 20
397.2467617282
 30
0.0
 40
5.0
  0
CIRCLE
  5
1A0
330
1F
100
AcDbEntity
  8
PROFILE_INTERIOR
100
AcDbCircle
 10
349.7171656925
 20
377.2467617282
 30
0.0
 40
5.0
  0
CIRCLE
  5
1A1
330
1F
100
AcDbEntity
  8
PROFILE_INTERIOR
100
AcDbCircle
 10
349.7171656925
 20
317.2467617282
 30
0.0
 40
5.0
  0
CIRCLE
  5
1A2
330
1F
100
AcDbEntity
  8
PROFILE_INTERIOR
100
AcDbCircle
 10
349.7171656925
 20
277.2467617282
 30
0.0
 40
5.0
  0
CIRCLE
  5
1A3
330
1F
100
AcDbEntity
  8
PROFILE_INTERIOR
100
AcDbCircle
 10
349.7171656925
 20
297.2467617282
 30
0.0
 40
5.0
  0
CIRCLE
  5
1A4
330
1F
100
AcDbEntity
  8
PROFILE_INTERIOR
100
AcDbCircle
 10
349.7171656925
 20
257.2467617282
 30
0.0
 40
5.0
  0
CIRCLE
  5
1A5
330
1F
100
AcDbEntity
  8
PROFILE_INTERIOR
100
AcDbCircle
 10
369.7171656925
 20
417.2467617282
 30
0.0
 40
5.0
  0
CIRCLE
  5
1A6
330
1F
100
AcDbEntity
  8
PROFILE_INTERIOR
100
AcDbCircle
 10
369.7171656925
 20
397.2467617282
 30
0.0
 40
5.0
  0
CIRCLE
  5
1A7
330
1F
100
AcDbEntity
  8
PROFILE_INTERIOR
100
AcDbCircle
 10
369.7171656925
 20
277.2467617282
 30
0.0
 40
5.0
  0
CIRCLE
  5
1A8
330
1F
100
AcDbEntity
  8
PROFILE_INTERIOR
100
AcDbCircle
 10
369.7171656925
 20
297.2467617282
 30
0.0
 40
5.0
  0
CIRCLE
  5
1A9
330
1F
100
AcDbEntity
  8
PROFILE_INTERIOR
100
AcDbCircle
 10
289.7171656925
 20
517.2467617282
 30
0.0
 40
5.000000000000057
  0
CIRCLE
  5
1AA
330
1F
100
AcDbEntity
  8
PROFILE_INTERIOR
100
AcDbCircle
 10
289.7171656925
 20
497.2467617282
 30
0.0
 40
5.000000000000057
  0
CIRCLE
  5
1AB
330
1F
100
AcDbEntity
  8
PROFILE_INTERIOR
100
AcDbCircle
 10
309.7171656925
 20
497.2467617282
 30
0.0
 40
5.0
  0
CIRCLE
  5
1AC
330
1F
100
AcDbEntity
  8
PROFILE_INTERIOR
100
AcDbCircle
 10
289.7171656925
 20
217.2467617282
 30
0.0
 40
5.000000000000057
  0
CIRCLE
  5
1AD
330
1F
100
AcDbEntity
  8
PROFILE_INTERIOR
100
AcDbCircle
 10
289.7171656925
 20
197.2467617282
 30
0.0
 40
5.000000000000057
  0
CIRCLE
  5
1AE
330
1F
100
AcDbEntity
  8
PROFILE_INTERIOR
100
AcDbCircle
 10
309.7171656925
 20
217.2467617282
 30
0.0
 40
5.0
  0
SPLINE
  5
1AF
330
1F
100
AcDbEntity
  8
PROFILE_INTERIOR
100
AcDbSpline
210
0.0
220
0.0
230
1.0
 70
     8
 71
     3
 72
    10
 73
     6
 74
     0
 42
0.000000001
 43
0.00000001
 40
0.5104331287997365
 40
0.5104331287997365
 40
0.5104331287997365
 40
0.5104331287997365
 40
0.6518358101802386
 40
0.827867316459293
 40
1.0
 40
1.0
 40
1.0
 40
1.0
 10
548.0446965183703
 20
377.3086515812553
 30
0.0
 10
545.7497787798242
 20
376.9050479975936
 30
0.0
 10
545.5682659235143
 20
390.7630010040186
 30
0.0
 10
541.2136576730691
 20
398.1555390487941
 30
0.0
 10
545.3495378130597
 20
412.182343378226
 30
0.0
 10
548.0446965183702
 20
412.308651581255
 30
0.0
  0
SPLINE
  5
1B0
330
1F
100
AcDbEntity
  8
PROFILE_INTERIOR
100
AcDbSpline
210
0.0
220
0.0
230
1.0
 70
     8
 71
     3
 72
    11
 73
     7
 74
     0
 42
0.000000001
 43
0.00000001
 40
0.0
 40
0.0
 40
0.0
 40
0.0
 40
0.1607406649839817
 40
0.3700535488894465
 40
0.4286137874128072
 40
0.5104331287997365
 40
0.5104331287997365
 40
0.5104331287997365
 40
0.5104331287997365
 10
548.0446965183702
 20
412.308651581255
 30
0.0
 10
550.561485274682
 20
412.4266005037385
 30
0.0
 10
557.6612338088294
 20
399.0297081819668
 30
0.0
 10
549.1556597067116
 20
390.1633045839684
 30
0.0
 10
552.9227555186757
 20
381.7207895886787
 30
0.0
 10
549.372596782155
 20
377.5421873181607
 30
0.0
 10
548.0446965183703
 20
377.3086515812553
 30
0.0
  0
SPLINE
  5
1B1
330
1F
100
AcDbEntity
  8
PROFILE_INTERIOR
100
AcDbSpline
210
0.0
220
0.0
230
1.0
 70
     8
 71
     3
 72
    10
 73
     6
 74
     0
 42
0.000000001
 43
0.00000001
 40
0.5104331287997382
 40
0.5104331287997382
 40
0.5104331287997382
 40
0.5104331287997382
 40
0.6518358101802373
 40
0.8278673164592897
 40
1.0
 40
1.0
 40
1.0
 40
1.0
 10
541.1693167826215
 20
376.1770879734693
 30
0.0
 10
539.1508400739294
 20
375.0129165703215
 30
0.0
 10
534.2405747088197
 20
387.9730516965262
 30
0.0
 10
527.6201845478478
 20
393.4304014081365
 30
0.0
 10
526.7091909686985
 20
408.0258402479693
 30
0.0
 10
529.1986117662228
 20
409.066329700976
 30
0.0
  0
SPLINE
  5
1B2
330
1F
100
AcDbEntity
  8
PROFILE_INTERIOR
100
AcDbSpline
210
0.0
220
0.0
230
1.0
 70
     8
 71
     3
 72
    11
 73
     7
 74
     0
 42
0.000000001
 43
0.00000001
 40
0.0
 40
0.0
 40
0.0
 40
0.0
 40
0.1607406649839816
 40
0.3700535488894456
 40
0.4286137874128101
 40
0.5104331287997382
 40
0.5104331287997382
 40
0.5104331287997382
 40
0.5104331287997382
 10
529.1986117662228
 20
409.066329700976
 30
0.0
 10
531.523278681233
 20
410.0379578842175
 30
0.0
 10
542.776867020218
 20
399.8772540392102
 30
0.0
 10
537.8167304302798
 20
388.6364823317878
 30
0.0
 10
544.2441527552954
 20
381.9915359393697
 30
0.0
 10
542.3372609354317
 20
376.8507084206709
 30
0.0
 10
541.1693167826215
 20
376.1770879734693
 30
0.0
  0
SPLINE
  5
1B3
330
1F
100
AcDbEntity
  8
PROFILE_INTERIOR
100
AcDbSpline
210
0.0
220
0.0
230
1.0
 70
     8
 71
     3
 72
    10
 73
     6
 74
     0
 42
0.000000001
 43
0.00000001
 40
0.5104331287997412
 40
0.5104331287997412
 40
0.5104331287997412
 40
0.5104331287997412
 40
0.6518358101802396
 40
0.8278673164592905
 40
1.0
 40
1.0
 40
1.0
 40
1.0
 10
535.0955907271539
 20
372.7622476386432
 30
0.0
 10
533.5970131289279
 20
370.9779246685691
 30
0.0
 10
524.5502457258495
 20
381.47705834711
 30
0.0
 10
516.4625904143177
 20
384.340982808431
 30
0.0
 10
510.6146023865067
 20
397.7446308288441
 30
0.0
 10
512.5980243881249
 20
399.5738031478074
 30
0.0
  0
SPLINE
  5
1B4
330
1F
100
AcDbEntity
  8
PROFILE_INTERIOR
100
AcDbSpline
210
0.0
220
0.0
230
1.0
 70
     8
 71
     3
 72
    11
 73
     7
 74
     0
 42
0.000000001
 43
0.00000001
 40
0.0
 40
0.0
 40
0.0
 40
0.0
 40
0.160740664983987
 40
0.3700535488894484
 40
0.428613787412809
 40
0.5104331287997412
 40
0.5104331287997412
 40
0.5104331287997412
 40
0.5104331287997412
 10
512.5980243881249
 20
399.5738031478074
 30
0.0
 10
514.4501803234537
 20
401.2819178932033
 30
0.0
 10
528.5002596283198
 20
395.5829333646869
 30
0.0
 10
527.6838262271284
 20
383.3235965118777
 30
0.0
 10
535.9963330741462
 20
379.2776973262205
 30
0.0
 10
535.9627074671407
 20
373.7947042286296
 30
0.0
 10
535.0955907271539
 20
372.7622476386432
 30
0.0
  0
SPLINE
  5
1B5
330
1F
100
AcDbEntity
  8
PROFILE_INTERIOR
100
AcDbSpline
210
0.0
220
0.0
230
1.0
 70
     8
 71
     3
 72
    10
 73
     6
 74
     0
 42
0.000000001
 43
0.00000001
 40
0.5104331287997377
 40
0.5104331287997377
 40
0.5104331287997377
 40
0.5104331287997377
 40
0.6518358101802387
 40
0.8278673164592897
 40
1.0
 40
1.0
 40
1.0
 40
1.0
 10
530.5560993529078
 20
367.4760107188335
 30
0.0
 10
529.7581714401441
 20
365.2867518658261
 30
0.0
 10
517.6660756639743
 20
372.0585336243606
 30
0.0
 10
509.0866457935331
 20
371.9836012783339
 30
0.0
 10
499.0070169803265
 20
382.5787807112892
 30
0.0
 10
500.2452102204524
 20
384.9760107188335
 30
0.0
  0
SPLINE
  5
1B6
330
1F
100
AcDbEntity
  8
PROFILE_INTERIOR
100
AcDbSpline
210
0.0
220
0.0
230
1.0
 70
     8
 71
     3
 72
    11
 73
     7
 74
     0
 42
0.000000001
 43
0.00000001
 40
0.0
 40
0.0
 40
0.0
 40
0.0
 40
0.1607406649839822
 40
0.3700535488894476
 40
0.4286137874128089
 40
0.5104331287997377
 40
0.5104331287997377
 40
0.5104331287997377
 40
0.5104331287997377
 10
500.2452102204524
 20
384.9760107188335
 30
0.0
 10
501.4014578353887
 20
387.2145881790002
 30
0.0
 10
516.5533811848817
 20
386.6647046091672
 30
0.0
 10
519.9791248898947
 20
374.8654595639628
 30
0.0
 10
529.174105253629
 20
373.906602737969
 30
0.0
 10
531.0178016039487
 20
368.7427739494158
 30
0.0
 10
530.5560993529078
 20
367.4760107188335
 30
0.0
  0
SPLINE
  5
1B7
330
1F
100
AcDbEntity
  8
PROFILE_INTERIOR
100
AcDbSpline
210
0.0
220
0.0
230
1.0
 70
     8
 71
     3
 72
    10
 73
     6
 74
     0
 42
0.000000001
 43
0.00000001
 40
0.5104331287997372
 40
0.5104331287997372
 40
0.5104331287997372
 40
0.5104331287997372
 40
0.6518358101802403
 40
0.8278673164592902
 40
1.0
 40
1.0
 40
1.0
 40
1.0
 10
528.0983723153743
 20
360.955975403117
 30
0.0
 10
528.0973359705137
 20
358.6258375948686
 30
0.0
 10
514.4183970321864
 20
360.853490612463
 30
0.0
 10
506.3819984641104
 20
357.8487394059028
 30
0.0
 10
493.2864808598583
 20
364.3575152435911
 30
0.0
 10
493.6301009599467
 20
367.0336616214595
 30
0.0
  0
SPLINE
  5
1B8
330
1F
100
AcDbEntity
  8
PROFILE_INTERIOR
100
AcDbSpline
210
0.0
220
0.0
230
1.0
 70
     8
 71
     3
 72
    11
 73
     7
 74
     0
 42
0.000000001
 43
0.00000001
 40
0.0
 40
0.0
 40
0.0
 40
0.0
 40
0.1607406649839804
 40
0.3700535488894509
 40
0.4286137874128064
 40
0.5104331287997372
 40
0.5104331287997372
 40
0.5104331287997372
 40
0.5104331287997372
 10
493.6301009599467
 20
367.0336616214595
 30
0.0
 10
493.9509797277319
 20
369.5326963168162
 30
0.0
 10
508.3772015473311
 20
374.1982377796058
 30
0.0
 10
515.6319271091311
 20
364.2822476327685
 30
0.0
 10
524.600330654259
 20
366.5260854508729
 30
0.0
 10
528.098971971994
 20
362.3042549332529
 30
0.0
 10
528.0983723153743
 20
360.955975403117
 30
0.0
  0
SPLINE
  5
1B9
330
1F
100
AcDbEntity
  8
PROFILE_INTERIOR
100
AcDbSpline
210
0.0
220
0.0
230
1.0
 70
     8
 71
     3
 72
    10
 73
     6
 74
     0
 42
0.000000001
 43
0.00000001
 40
0.5104331287997378
 40
0.5104331287997378
 40
0.5104331287997378
 40
0.5104331287997378
 40
0.6518358101802387
 40
0.8278673164592917
 40
1.0
 40
1.0
 40
1.0
 40
1.0
 10
528.0188477674675
 20
353.9885541760419
 30
0.0
 10
528.814827988995
 20
351.798586421399
 30
0.0
 10
515.1989278041102
 20
349.2134228674742
 30
0.0
 10
508.6748688103206
 20
343.6412701412961
 30
0.0
 10
494.1429751073526
 20
345.2785879583915
 30
0.0
 10
493.5505764120402
 20
347.9108679576997
 30
0.0
  0
SPLINE
  5
1BA
330
1F
100
AcDbEntity
  8
PROFILE_INTERIOR
100
AcDbSpline
210
0.0
220
0.0
230
1.0
 70
     8
 71
     3
 72
    11
 73
     7
 74
     0
 42
0.000000001
 43
0.00000001
 40
0.0
 40
0.0
 40
0.0
 40
0.0
 40
0.160740664983982
 40
0.370053548889449
 40
0.4286137874128073
 40
0.5104331287997378
 40
0.5104331287997378
 40
0.5104331287997378
 40
0.5104331287997378
 10
493.5505764120402
 20
347.9108679576997
 30
0.0
 10
492.997383617613
 20
350.3689394221623
 30
0.0
 10
504.9578886475157
 20
359.6871727611034
 30
0.0
 10
515.1665690950036
 20
352.8504522687696
 30
0.0
 10
522.8266739944422
 20
358.0263447745899
 30
0.0
 10
527.5582725022279
 20
355.2557275959105
 30
0.0
 10
528.0188477674675
 20
353.9885541760419
 30
0.0
  0
SPLINE
  5
1BB
330
1F
100
AcDbEntity
  8
PROFILE_INTERIOR
100
AcDbSpline
210
0.0
220
0.0
230
1.0
 70
     8
 71
     3
 72
    10
 73
     6
 74
     0
 42
0.000000001
 43
0.00000001
 40
0.5104331287997392
 40
0.5104331287997392
 40
0.5104331287997392
 40
0.5104331287997392
 40
0.6518358101802415
 40
0.8278673164592921
 40
1.0
 40
1.0
 40
1.0
 40
1.0
 10
530.3271175433229
 20
347.4141208657798
 30
0.0
 10
531.8241073691055
 20
345.628465596434
 30
0.0
 10
519.9135244492451
 20
338.5422943485439
 30
0.0
 10
515.6887028292493
 20
331.0748239577414
 30
0.0
 10
501.4731938760525
 20
327.6431990612643
 30
0.0
 10
500.0162284108677
 20
329.9141208657796
 30
0.0
  0
SPLINE
  5
1BC
330
1F
100
AcDbEntity
  8
PROFILE_INTERIOR
100
AcDbSpline
210
0.0
220
0.0
230
1.0
 70
     8
 71
     3
 72
    11
 73
     7
 74
     0
 42
0.000000001
 43
0.00000001
 40
0.0
 40
0.0
 40
0.0
 40
0.0
 40
0.1607406649839806
 40
0.370053548889448
 40
0.4286137874128098
 40
0.5104331287997392
 40
0.5104331287997392
 40
0.5104331287997392
 40
0.5104331287997392
 10
500.0162284108677
 20
329.9141208657796
 30
0.0
 10
498.6556872694921
 20
332.0347494034629
 30
0.0
 10
506.7078620848372
 20
344.8817581554023
 30
0.0
 10
518.6391798919691
 20
341.9489167081954
 30
0.0
 10
524.0670644437384
 20
349.4325748774921
 30
0.0
 10
529.4609195305788
 20
348.4473483594568
 30
0.0
 10
530.3271175433229
 20
347.4141208657798
 30
0.0
  0
SPLINE
  5
1BD
330
1F
100
AcDbEntity
  8
PROFILE_INTERIOR
100
AcDbSpline
210
0.0
220
0.0
230
1.0
 70
     8
 71
     3
 72
    10
 73
     6
 74
     0
 42
0.000000001
 43
0.00000001
 40
0.5104331287997375
 40
0.5104331287997375
 40
0.5104331287997375
 40
0.5104331287997375
 40
0.6518358101802377
 40
0.8278673164592883
 40
1.0
 40
1.0
 40
1.0
 40
1.0
 10
534.7447702415384
 20
342.0256491578492
 30
0.0
 10
536.7622106053698
 20
340.8596827527486
 30
0.0
 10
527.9935370321522
 20
330.1272006441386
 30
0.0
 10
526.5775286250474
 20
321.6650997259675
 30
0.0
 10
514.3930045999451
 20
313.5784367238232
 30
0.0
 10
512.2472039025092
 20
315.2140936486852
 30
0.0
  0
SPLINE
  5
1BE
330
1F
100
AcDbEntity
  8
PROFILE_INTERIOR
100
AcDbSpline
210
0.0
220
0.0
230
1.0
 70
     8
 71
     3
 72
    11
 73
     7
 74
     0
 42
0.000000001
 43
0.00000001
 40
0.0
 40
0.0
 40
0.0
 40
0.0
 40
0.1607406649839811
 40
0.3700535488894455
 40
0.4286137874128056
 40
0.5104331287997375
 40
0.5104331287997375
 40
0.5104331287997375
 40
0.5104331287997375
 10
512.2472039025092
 20
315.2140936486852
 30
0.0
 10
510.2434157552842
 20
316.7415001608005
 30
0.0
 10
513.4160492358985
 20
331.5677454685972
 30
0.0
 10
525.6309113876359
 20
332.8925270291817
 30
0.0
 10
528.1718926077488
 20
341.781311239705
 30
0.0
 10
533.577425745348
 20
342.7003082407834
 30
0.0
 10
534.7447702415384
 20
342.0256491578492
 30
0.0
  0
SPLINE
  5
1BF
330
1F
100
AcDbEntity
  8
PROFILE_INTERIOR
100
AcDbSpline
210
0.0
220
0.0
230
1.0
 70
     8
 71
     3
 72
    10
 73
     6
 74
     0
 42
0.000000001
 43
0.00000001
 40
0.5104331287997387
 40
0.5104331287997387
 40
0.5104331287997387
 40
0.5104331287997387
 40
0.651835810180237
 40
0.8278673164592889
 40
0.9999999999999999
 40
0.9999999999999999
 40
0.9999999999999999
 40
0.9999999999999999
 10
540.7389717490989
 20
338.4730682656002
 30
0.0
 10
543.0335295688523
 20
338.0674234810315
 30
0.0
 10
538.4643967870464
 20
324.983126248566
 30
0.0
 10
540.0279931047886
 20
316.5470490610668
 30
0.0
 10
531.3440874296309
 20
304.7807188577486
 30
0.0
 10
528.7682667327002
 20
305.5838265380935
 30
0.0
  0
SPLINE
  5
1C0
330
1F
100
AcDbEntity
  8
PROFILE_INTERIOR
100
AcDbSpline
210
0.0
220
0.0
230
1.0
 70
     8
 71
     3
 72
    11
 73
     7
 74
     0
 42
0.000000001
 43
0.00000001
 40
0.0
 40
0.0
 40
0.0
 40
0.0
 40
0.160740664983983
 40
0.3700535488894465
 40
0.4286137874128074
 40
0.5104331287997387
 40
0.5104331287997387
 40
0.5104331287997387
 40
0.5104331287997387
 10
528.7682667327002
 20
305.5838265380935
 30
0.0
 10
526.3629180029444
 20
306.3337832571603
 30
0.0
 10
524.2733437279816
 20
321.3510011246184
 30
0.0
 10
535.2984575766609
 20
326.773617485093
 30
0.0
 10
534.6460556290815
 20
335.9954091765711
 30
0.0
 10
539.4112797438726
 20
338.7077850954823
 30
0.0
 10
540.7389717490989
 20
338.4730682656002
 30
0.0
  0
SPLINE
  5
1C1
330
1F
100
AcDbEntity
  8
PROFILE_INTERIOR
100
AcDbSpline
210
0.0
220
0.0
230
1.0
 70
     8
 71
     3
 72
    10
 73
     6
 74
     0
 42
0.000000001
 43
0.00000001
 40
0.5104331287997401
 40
0.5104331287997401
 40
0.5104331287997401
 40
0.5104331287997401
 40
0.6518358101802377
 40
0.8278673164592921
 40
1.0
 40
1.0
 40
1.0
 40
1.0
 10
547.5867328992005
 20
337.1848718751476
 30
0.0
 10
549.8816506377468
 20
337.5884754588089
 30
0.0
 10
550.0631634940562
 20
323.7305224523845
 30
0.0
 10
554.4177717445015
 20
316.3379844076087
 30
0.0
 10
550.281891604511
 20
302.3111800781766
 30
0.0
 10
547.5867328992003
 20
302.1848718751477
 30
0.0
  0
SPLINE
  5
1C2
330
1F
100
AcDbEntity
  8
PROFILE_INTERIOR
100
AcDbSpline
210
0.0
220
0.0
230
1.0
 70
     8
 71
     3
 72
    11
 73
     7
 74
     0
 42
0.000000001
 43
0.00000001
 40
0.0
 40
0.0
 40
0.0
 40
0.0
 40
0.1607406649839803
 40
0.3700535488894455
 40
0.4286137874128065
 40
0.5104331287997401
 40
0.5104331287997401
 40
0.5104331287997401
 40
0.5104331287997401
 10
547.5867328992003
 20
302.1848718751477
 30
0.0
 10
545.0699441428886
 20
302.0669229526644
 30
0.0
 10
537.9701956087414
 20
315.4638152744363
 30
0.0
 10
546.4757697108596
 20
324.3302188724345
 30
0.0
 10
542.7086738988944
 20
332.7727338677243
 30
0.0
 10
546.2588326354156
 20
336.9513361382423
 30
0.0
 10
547.5867328992005
 20
337.1848718751476
 30
0.0
  0
SPLINE
  5
1C3
330
1F
100
AcDbEntity
  8
PROFILE_INTERIOR
100
AcDbSpline
210
0.0
220
0.0
230
1.0
 70
     8
 71
     3
 72
    10
 73
     6
 74
     0
 42
0.000000001
 43
0.00000001
 40
0.5104331287997386
 40
0.5104331287997386
 40
0.5104331287997386
 40
0.5104331287997386
 40
0.6518358101802364
 40
0.8278673164592878
 40
1.0
 40
1.0
 40
1.0
 40
1.0
 10
554.4621126349494
 20
338.316435482934
 30
0.0
 10
556.4805893436416
 20
339.4806068860815
 30
0.0
 10
561.3908547087507
 20
326.5204717598767
 30
0.0
 10
568.0112448697224
 20
321.0631220482666
 30
0.0
 10
568.9222384488719
 20
306.4676832084339
 30
0.0
 10
566.4328176513476
 20
305.427193755427
 30
0.0
  0
SPLINE
  5
1C4
330
1F
100
AcDbEntity
  8
PROFILE_INTERIOR
100
AcDbSpline
210
0.0
220
0.0
230
1.0
 70
     8
 71
     3
 72
    11
 73
     7
 74
     0
 42
0.000000001
 43
0.00000001
 40
0.0
 40
0.0
 40
0.0
 40
0.0
 40
0.1607406649839796
 40
0.3700535488894464
 40
0.4286137874128067
 40
0.5104331287997386
 40
0.5104331287997386
 40
0.5104331287997386
 40
0.5104331287997386
 10
566.4328176513476
 20
305.427193755427
 30
0.0
 10
564.1081507363374
 20
304.4555655721857
 30
0.0
 10
552.8545623973527
 20
314.6162694171929
 30
0.0
 10
557.8146989872909
 20
325.8570411246152
 30
0.0
 10
551.3872766622753
 20
332.5019875170335
 30
0.0
 10
553.2941684821393
 20
337.6428150357323
 30
0.0
 10
554.4621126349494
 20
338.316435482934
 30
0.0
  0
SPLINE
  5
1C5
330
1F
100
AcDbEntity
  8
PROFILE_INTERIOR
100
AcDbSpline
210
0.0
220
0.0
230
1.0
 70
     8
 71
     3
 72
    10
 73
     6
 74
     0
 42
0.000000001
 43
0.00000001
 40
0.5104331287997357
 40
0.5104331287997357
 40
0.5104331287997357
 40
0.5104331287997357
 40
0.6518358101802351
 40
0.8278673164592899
 40
0.9999999999999999
 40
0.9999999999999999
 40
0.9999999999999999
 40
0.9999999999999999
 10
560.5358386904167
 20
341.7312758177596
 30
0.0
 10
562.0344162886422
 20
343.5155987878339
 30
0.0
 10
571.0811836917212
 20
333.0164651092931
 30
0.0
 10
579.1688390032532
 20
330.1525406479721
 30
0.0
 10
585.0168270310635
 20
316.7488926275587
 30
0.0
 10
583.0334050294451
 20
314.9197203085955
 30
0.0
  0
SPLINE
  5
1C6
330
1F
100
AcDbEntity
  8
PROFILE_INTERIOR
100
AcDbSpline
210
0.0
220
0.0
230
1.0
 70
     8
 71
     3
 72
    11
 73
     7
 74
     0
 42
0.000000001
 43
0.00000001
 40
0.0
 40
0.0
 40
0.0
 40
0.0
 40
0.1607406649839806
 40
0.3700535488894428
 40
0.4286137874128065
 40
0.5104331287997357
 40
0.5104331287997357
 40
0.5104331287997357
 40
0.5104331287997357
 10
583.0334050294451
 20
314.9197203085955
 30
0.0
 10
581.1812490941164
 20
313.2116055631997
 30
0.0
 10
567.1311697892515
 20
318.9105900917165
 30
0.0
 10
567.9476031904424
 20
331.1699269445254
 30
0.0
 10
559.635096343425
 20
335.2158261301825
 30
0.0
 10
559.6687219504299
 20
340.6988192277732
 30
0.0
 10
560.5358386904167
 20
341.7312758177596
 30
0.0
  0
SPLINE
  5
1C7
330
1F
100
AcDbEntity
  8
PROFILE_INTERIOR
100
AcDbSpline
210
0.0
220
0.0
230
1.0
 70
     8
 71
     3
 72
    10
 73
     6
 74
     0
 42
0.000000001
 43
0.00000001
 40
0.5104331287997397
 40
0.5104331287997397
 40
0.5104331287997397
 40
0.5104331287997397
 40
0.6518358101802406
 40
0.8278673164592892
 40
1.0
 40
1.0
 40
1.0
 40
1.0
 10
565.0753300646628
 20
347.0175127375695
 30
0.0
 10
565.8732579774266
 20
349.2067715905769
 30
0.0
 10
577.965353753596
 20
342.4349898320418
 30
0.0
 10
586.5447836240374
 20
342.5099221780688
 30
0.0
 10
596.624412437244
 20
331.9147427451138
 30
0.0
 10
595.3862191971181
 20
329.5175127375692
 30
0.0
  0
SPLINE
  5
1C8
330
1F
100
AcDbEntity
  8
PROFILE_INTERIOR
100
AcDbSpline
210
0.0
220
0.0
230
1.0
 70
     8
 71
     3
 72
    11
 73
     7
 74
     0
 42
0.000000001
 43
0.00000001
 40
0.0
 40
0.0
 40
0.0
 40
0.0
 40
0.1607406649839852
 40
0.3700535488894514
 40
0.4286137874128088
 40
0.5104331287997397
 40
0.5104331287997397
 40
0.5104331287997397
 40
0.5104331287997397
 10
595.3862191971181
 20
329.5175127375692
 30
0.0
 10
594.2299715821819
 20
327.2789352774025
 30
0.0
 10
579.0780482326886
 20
327.8288188472354
 30
0.0
 10
575.6523045276757
 20
339.6280638924402
 30
0.0
 10
566.4573241639415
 20
340.5869207184338
 30
0.0
 10
564.6136278136221
 20
345.7507495069872
 30
0.0
 10
565.0753300646628
 20
347.0175127375695
 30
0.0
  0
SPLINE
  5
1C9
330
1F
100
AcDbEntity
  8
PROFILE_INTERIOR
100
AcDbSpline
210
0.0
220
0.0
230
1.0
 70
     8
 71
     3
 72
    10
 73
     6
 74
     0
 42
0.000000001
 43
0.00000001
 40
0.5104331287997373
 40
0.5104331287997373
 40
0.5104331287997373
 40
0.5104331287997373
 40
0.6518358101802403
 40
0.827867316459289
 40
1.0
 40
1.0
 40
1.0
 40
1.0
 10
567.5330571021963
 20
353.537548053286
 30
0.0
 10
567.534093447057
 20
355.8676858615344
 30
0.0
 10
581.2130323853842
 20
353.6400328439397
 30
0.0
 10
589.2494309534604
 20
356.6447840505007
 30
0.0
 10
602.3449485577121
 20
350.136008212812
 30
0.0
 10
602.0013284576233
 20
347.4598618349432
 30
0.0
  0
SPLINE
  5
1CA
330
1F
100
AcDbEntity
  8
PROFILE_INTERIOR
100
AcDbSpline
210
0.0
220
0.0
230
1.0
 70
     8
 71
     3
 72
    11
 73
     7
 74
     0
 42
0.000000001
 43
0.00000001
 40
0.0
 40
0.0
 40
0.0
 40
0.0
 40
0.1607406649839786
 40
0.3700535488894443
 40
0.4286137874128074
 40
0.5104331287997373
 40
0.5104331287997373
 40
0.5104331287997373
 40
0.5104331287997373
 10
602.0013284576233
 20
347.4598618349432
 30
0.0
 10
601.6804496898383
 20
344.9608271395865
 30
0.0
 10
587.2542278702397
 20
340.2952856767969
 30
0.0
 10
579.9995023084397
 20
350.2112758236352
 30
0.0
 10
571.0310987633117
 20
347.9674380055298
 30
0.0
 10
567.5324574455765
 20
352.1892685231501
 30
0.0
 10
567.5330571021963
 20
353.537548053286
 30
0.0
  0
SPLINE
  5
1CB
330
1F
100
AcDbEntity
  8
PROFILE_INTERIOR
100
AcDbSpline
210
0.0
220
0.0
230
1.0
 70
     8
 71
     3
 72
    10
 73
     6
 74
     0
 42
0.000000001
 43
0.00000001
 40
0.5104331287997375
 40
0.5104331287997375
 40
0.5104331287997375
 40
0.5104331287997375
 40
0.6518358101802341
 40
0.8278673164592859
 40
0.9999999999999999
 40
0.9999999999999999
 40
0.9999999999999999
 40
0.9999999999999999
 10
567.6125816501032
 20
360.504969280361
 30
0.0
 10
566.8166014285757
 20
362.6949370350039
 30
0.0
 10
580.4325016134604
 20
365.2801005889285
 30
0.0
 10
586.9565606072496
 20
370.8522533151071
 30
0.0
 10
601.4884543102181
 20
369.2149354980116
 30
0.0
 10
602.0808530055303
 20
366.5826554987034
 30
0.0
  0
SPLINE
  5
1CC
330
1F
100
AcDbEntity
  8
PROFILE_INTERIOR
100
AcDbSpline
210
0.0
220
0.0
230
1.0
 70
     8
 71
     3
 72
    11
 73
     7
 74
     0
 42
0.000000001
 43
0.00000001
 40
0.0
 40
0.0
 40
0.0
 40
0.0
 40
0.1607406649839795
 40
0.3700535488894467
 40
0.4286137874128115
 40
0.5104331287997375
 40
0.5104331287997375
 40
0.5104331287997375
 40
0.5104331287997375
 10
602.0808530055303
 20
366.5826554987034
 30
0.0
 10
602.6340457999573
 20
364.1245840342407
 30
0.0
 10
590.6735407700548
 20
354.8063506952994
 30
0.0
 10
580.4648603225671
 20
361.6430711876338
 30
0.0
 10
572.8047554231282
 20
356.4671786818131
 30
0.0
 10
568.0731569153426
 20
359.2377958604926
 30
0.0
 10
567.6125816501032
 20
360.504969280361
 30
0.0
  0
SPLINE
  5
1CD
330
1F
100
AcDbEntity
  8
PROFILE_INTERIOR
100
AcDbSpline
210
0.0
220
0.0
230
1.0
 70
     8
 71
     3
 72
    10
 73
     6
 74
     0
 42
0.000000001
 43
0.00000001
 40
0.5104331287997381
 40
0.5104331287997381
 40
0.5104331287997381
 40
0.5104331287997381
 40
0.6518358101802384
 40
0.8278673164592877
 40
1.0
 40
1.0
 40
1.0
 40
1.0
 10
565.3043118742476
 20
367.0794025906234
 30
0.0
 10
563.8073220484652
 20
368.8650578599694
 30
0.0
 10
575.7179049683252
 20
375.951229107859
 30
0.0
 10
579.9427265883213
 20
383.4186994986619
 30
0.0
 10
594.1582355415185
 20
386.8503243951386
 30
0.0
 10
595.6152010067032
 20
384.5794025906231
 30
0.0
  0
SPLINE
  5
1CE
330
1F
100
AcDbEntity
  8
PROFILE_INTERIOR
100
AcDbSpline
210
0.0
220
0.0
230
1.0
 70
     8
 71
     3
 72
    11
 73
     7
 74
     0
 42
0.000000001
 43
0.00000001
 40
0.0
 40
0.0
 40
0.0
 40
0.0
 40
0.1607406649839814
 40
0.3700535488894487
 40
0.428613787412805
 40
0.5104331287997381
 40
0.5104331287997381
 40
0.5104331287997381
 40
0.5104331287997381
 10
595.6152010067032
 20
384.5794025906231
 30
0.0
 10
596.9757421480786
 20
382.4587740529398
 30
0.0
 10
588.923567332733
 20
369.6117653010009
 30
0.0
 10
576.9922495256014
 20
372.5446067482075
 30
0.0
 10
571.5643649738322
 20
365.0609485789109
 30
0.0
 10
566.1705098869916
 20
366.0461750969464
 30
0.0
 10
565.3043118742476
 20
367.0794025906234
 30
0.0
  0
SPLINE
  5
1CF
330
1F
100
AcDbEntity
  8
PROFILE_INTERIOR
100
AcDbSpline
210
0.0
220
0.0
230
1.0
 70
     8
 71
     3
 72
    10
 73
     6
 74
     0
 42
0.000000001
 43
0.00000001
 40
0.5104331287997379
 40
0.5104331287997379
 40
0.5104331287997379
 40
0.5104331287997379
 40
0.6518358101802365
 40
0.8278673164592901
 40
1.0
 40
1.0
 40
1.0
 40
1.0
 10
560.8866591760324
 20
372.4678742985538
 30
0.0
 10
558.8692188122011
 20
373.6338407036543
 30
0.0
 10
567.6378923854184
 20
384.3663228122647
 30
0.0
 10
569.0539007925231
 20
392.8284237304353
 30
0.0
 10
581.2384248176253
 20
400.9150867325797
 30
0.0
 10
583.3842255150612
 20
399.2794298077178
 30
0.0
  0
SPLINE
  5
1D0
330
1F
100
AcDbEntity
  8
PROFILE_INTERIOR
100
AcDbSpline
210
0.0
220
0.0
230
1.0
 70
     8
 71
     3
 72
    11
 73
     7
 74
     0
 42
0.000000001
 43
0.00000001
 40
0.0
 40
0.0
 40
0.0
 40
0.0
 40
0.1607406649839851
 40
0.37005354888945
 40
0.4286137874128097
 40
0.5104331287997379
 40
0.5104331287997379
 40
0.5104331287997379
 40
0.5104331287997379
 10
583.3842255150612
 20
399.2794298077178
 30
0.0
 10
585.3880136622863
 20
397.7520232956026
 30
0.0
 10
582.2153801816726
 20
382.9257779878054
 30
0.0
 10
570.0005180299345
 20
381.6009964272212
 30
0.0
 10
567.4595368098218
 20
372.712212216698
 30
0.0
 10
562.0540036722228
 20
371.7932152156195
 30
0.0
 10
560.8866591760324
 20
372.4678742985538
 30
0.0
  0
SPLINE
  5
1D1
330
1F
100
AcDbEntity
  8
PROFILE_INTERIOR
100
AcDbSpline
210
0.0
220
0.0
230
1.0
 70
     8
 71
     3
 72
    10
 73
     6
 74
     0
 42
0.000000001
 43
0.00000001
 40
0.5104331287997382
 40
0.5104331287997382
 40
0.5104331287997382
 40
0.5104331287997382
 40
0.6518358101802354
 40
0.8278673164592886
 40
1.0
 40
1.0
 40
1.0
 40
1.0
 10
554.8924576684716
 20
376.0204551908027
 30
0.0
 10
552.5978998487184
 20
376.4260999753716
 30
0.0
 10
557.1670326305247
 20
389.5103972078371
 30
0.0
 10
555.6034363127816
 20
397.9464743953365
 30
0.0
 10
564.2873419879396
 20
409.7128045986543
 30
0.0
 10
566.8631626848703
 20
408.9096969183094
 30
0.0
  0
SPLINE
  5
1D2
330
1F
100
AcDbEntity
  8
PROFILE_INTERIOR
100
AcDbSpline
210
0.0
220
0.0
230
1.0
 70
     8
 71
     3
 72
    11
 73
     7
 74
     0
 42
0.000000001
 43
0.00000001
 40
0.0
 40
0.0
 40
0.0
 40
0.0
 40
0.1607406649839813
 40
0.3700535488894455
 40
0.4286137874128079
 40
0.5104331287997382
 40
0.5104331287997382
 40
0.5104331287997382
 40
0.5104331287997382
 10
566.8631626848703
 20
408.9096969183094
 30
0.0
 10
569.2685114146263
 20
408.1597401992424
 30
0.0
 10
571.3580856895891
 20
393.1425223317847
 30
0.0
 10
560.3329718409097
 20
387.7199059713101
 30
0.0
 10
560.9853737884889
 20
378.4981142798317
 30
0.0
 10
556.2201496736978
 20
375.7857383609207
 30
0.0
 10
554.8924576684716
 20
376.0204551908027
 30
0.0
  0
ENDSEC
  0
SECTION
  2
OBJECTS
  0
DICTIONARY
  5
C
330
0
100
AcDbDictionary
281
     1
  3
ACAD_GROUP
350
D
  3
ACAD_LAYOUT
350
1A
  3
ACAD_MLINESTYLE
350
17
  3
ACAD_PLOTSETTINGS
350
19
  3
ACAD_PLOTSTYLENAME
350
E
  3
ACAD_SCALELIST
350
47
  0
DICTIONARY
  5
D
102
{ACAD_REACTORS
330
C
102
}
330
C
100
AcDbDictionary
281
     1
  0
DICTIONARY
  5
1A
102
{ACAD_REACTORS
330
C
102
}
330
C
100
AcDbDictionary
281
     1
  3
Layout1
350
1E
  3
Layout2
350
26
  3
Model
350
22
  0
DICTIONARY
  5
17
102
{ACAD_REACTORS
330
C
102
}
330
C
100
AcDbDictionary
281
     1
  3
Standard
350
18
  0
DICTIONARY
  5
19
102
{ACAD_REACTORS
330
C
102
}
330
C
100
AcDbDictionary
281
     1
  0
ACDBDICTIONARYWDFLT
  5
E
102
{ACAD_REACTORS
330
C
102
}
330
C
100
AcDbDictionary
281
     1
  3
Normal
350
F
100
AcDbDictionaryWithDefault
340
F
  0
DICTIONARY
  5
47
102
{ACAD_REACTORS
330
C
102
}
330
C
100
AcDbDictionary
281
     1
  3
A0
350
48
  3
A1
350
49
  3
A2
350
4A
  3
A3
350
4B
  3
A4
350
4C
  3
A5
350
4D
  3
A6
350
4E
  3
A7
350
4F
  3
A8
350
50
  3
A9
350
51
  3
B0
350
52
  3
B1
350
53
  3
B2
350
54
  3
B3
350
55
  3
B4
350
56
  3
B5
350
57
  3
B6
350
58
  3
B7
350
59
  3
B8
350
5A
  3
B9
350
5B
  3
C0
350
5C
  3
C1
350
5D
  3
C2
350
5E
  3
C3
350
5F
  3
C4
350
60
  3
C5
350
61
  3
C6
350
62
  3
C7
350
63
  3
C8
350
64
  3
C9
350
65
  3
D0
350
66
  3
D1
350
67
  3
D2
350
68
  0
LAYOUT
  5
1E
102
{ACAD_REACTORS
330
1A
102
}
330
1A
100
AcDbPlotSettings
  1

  2
none_device
  4

  6

 40
0.0
 41
0.0
 42
0.0
 43
0.0
 44
0.0
 45
0.0
 46
0.0
 47
0.0
 48
0.0
 49
0.0
140
0.0
141
0.0
142
1.0
143
1.0
 70
   688
 72
     1
 73
     0
 74
     5
  7

 75
    16
147
1.0
148
0.0
149
0.0
100
AcDbLayout
  1
Layout1
 70
     1
 71
     1
 10
0.0
 20
0.0
 11
420.0
 21
297.0
 12
0.0
 22
0.0
 32
0.0
 14
1.0000000000E+20
 24
1.0000000000E+20
 34
1.0000000000E+20
 15
-1.0000000000E+20
 25
-1.0000000000E+20
 35
-1.0000000000E+20
146
0.0
 13
0.0
 23
0.0
 33
0.0
 16
1.0
 26
0.0
 36
0.0
 17
0.0
 27
1.0
 37
0.0
 76
     0
330
1B
  0
LAYOUT
  5
26
102
{ACAD_REACTORS
330
1A
102
}
330
1A
100
AcDbPlotSettings
  1

  2
none_device
  4

  6

 40
0.0
 41
0.0
 42
0.0
 43
0.0
 44
0.0
 45
0.0
 46
0.0
 47
0.0
 48
0.0
 49
0.0
140
0.0
141
0.0
142
1.0
143
1.0
 70
   688
 72
     1
 73
     0
 74
     5
  7

 75
    16
147
1.0
148
0.0
149
0.0
100
AcDbLayout
  1
Layout2
 70
     1
 71
     2
 10
0.0
 20
0.0
 11
0.0
 21
0.0
 12
0.0
 22
0.0
 32
0.0
 14
0.0
 24
0.0
 34
0.0
 15
0.0
 25
0.0
 35
0.0
146
0.0
 13
0.0
 23
0.0
 33
0.0
 16
1.0
 26
0.0
 36
0.0
 17
0.0
 27
1.0
 37
0.0
 76
     0
330
23
  0
LAYOUT
  5
22
102
{ACAD_REACTORS
330
1A
102
}
330
1A
100
AcDbPlotSettings
  1

  2
none_device
  4
Letter_(8.50_x_11.00_Inches)
  6

 40
6.35
 41
6.35
 42
6.35000508
 43
6.35000508
 44
215.9
 45
279.4
 46
0.0
 47
0.0
 48
0.0
 49
0.0
140
0.0
141
0.0
142
1.0
143
1.0
 70
  1712
 72
     1
 73
     0
 74
     0
  7

 75
     0
147
1.0
148
0.0
149
0.0
100
AcDbLayout
  1
Model
 70
     1
 71
     0
 10
0.0
 20
0.0
 11
1189.0
 21
841.0
 12
0.0
 22
0.0
 32
0.0
 14
0.0
 24
0.0
 34
0.0
 15
1189.0
 25
841.0
 35
0.0
146
0.0
 13
0.0
 23
0.0
 33
0.0
 16
1.0
 26
0.0
 36
0.0
 17
0.0
 27
1.0
 37
0.0
 76
     0
330
1F
331
29
  0
MLINESTYLE
  5
18
102
{ACAD_REACTORS
330
17
102
}
330
17
100
AcDbMlineStyle
  2
Standard
 70
     0
  3

 62
   256
 51
90.0
 52
90.0
 71
     2
 49
0.5
 62
   256
  6
BYLAYER
 49
-0.5
 62
   256
  6
BYLAYER
  0
ACDBPLACEHOLDER
  5
F
102
{ACAD_REACTORS
330
E
102
}
330
E
  0
SCALE
  5
48
102
{ACAD_REACTORS
330
47
102
}
330
47
100
AcDbScale
 70
     0
300
1:1
140
1.0
141
1.0
290
     1
  0
SCALE
  5
49
102
{ACAD_REACTORS
330
47
102
}
330
47
100
AcDbScale
 70
     0
300
1:2
140
1.0
141
2.0
290
     0
  0
SCALE
  5
4A
102
{ACAD_REACTORS
330
47
102
}
330
47
100
AcDbScale
 70
     0
300
1:4
140
1.0
141
4.0
290
     0
  0
SCALE
  5
4B
102
{ACAD_REACTORS
330
47
102
}
330
47
100
AcDbScale
 70
     0
300
1:5
140
1.0
141
5.0
290
     0
  0
SCALE
  5
4C
102
{ACAD_REACTORS
330
47
102
}
330
47
100
AcDbScale
 70
     0
300
1:8
140
1.0
141
8.0
290
     0
  0
SCALE
  5
4D
102
{ACAD_REACTORS
330
47
102
}
330
47
100
AcDbScale
 70
     0
300
1:10
140
1.0
141
10.0
290
     0
  0
SCALE
  5
4E
102
{ACAD_REACTORS
330
47
102
}
330
47
100
AcDbScale
 70
     0
300
1:16
140
1.0
141
16.0
290
     0
  0
SCALE
  5
4F
102
{ACAD_REACTORS
330
47
102
}
330
47
100
AcDbScale
 70
     0
300
1:20
140
1.0
141
20.0
290
     0
  0
SCALE
  5
50
102
{ACAD_REACTORS
330
47
102
}
330
47
100
AcDbScale
 70
     0
300
1:30
140
1.0
141
30.0
290
     0
  0
SCALE
  5
51
102
{ACAD_REACTORS
330
47
102
}
330
47
100
AcDbScale
 70
     0
300
1:40
140
1.0
141
40.0
290
     0
  0
SCALE
  5
52
102
{ACAD_REACTORS
330
47
102
}
330
47
100
AcDbScale
 70
     0
300
1:50
140
1.0
141
50.0
290
     0
  0
SCALE
  5
53
102
{ACAD_REACTORS
330
47
102
}
330
47
100
AcDbScale
 70
     0
300
1:100
140
1.0
141
100.0
290
     0
  0
SCALE
  5
54
102
{ACAD_REACTORS
330
47
102
}
330
47
100
AcDbScale
 70
     0
300
2:1
140
2.0
141
1.0
290
     0
  0
SCALE
  5
55
102
{ACAD_REACTORS
330
47
102
}
330
47
100
AcDbScale
 70
     0
300
4:1
140
4.0
141
1.0
290
     0
  0
SCALE
  5
56
102
{ACAD_REACTORS
330
47
102
}
330
47
100
AcDbScale
 70
     0
300
8:1
140
8.0
141
1.0
290
     0
  0
SCALE
  5
57
102
{ACAD_REACTORS
330
47
102
}
330
47
100
AcDbScale
 70
     0
300
10:1
140
10.0
141
1.0
290
     0
  0
SCALE
  5
58
102
{ACAD_REACTORS
330
47
102
}
330
47
100
AcDbScale
 70
     0
300
100:1
140
100.0
141
1.0
290
     0
  0
SCALE
  5
59
102
{ACAD_REACTORS
330
47
102
}
330
47
100
AcDbScale
 70
     0
300
1/128" = 1'-0"
140
0.0078125
141
12.0
290
     0
  0
SCALE
  5
5A
102
{ACAD_REACTORS
330
47
102
}
330
47
100
AcDbScale
 70
     0
300
1/64" = 1'-0"
140
0.015625
141
12.0
290
     0
  0
SCALE
  5
5B
102
{ACAD_REACTORS
330
47
102
}
330
47
100
AcDbScale
 70
     0
300
1/32" = 1'-0"
140
0.03125
141
12.0
290
     0
  0
SCALE
  5
5C
102
{ACAD_REACTORS
330
47
102
}
330
47
100
AcDbScale
 70
     0
300
1/16" = 1'-0"
140
0.0625
141
12.0
290
     0
  0
SCALE
  5
5D
102
{ACAD_REACTORS
330
47
102
}
330
47
100
AcDbScale
 70
     0
300
3/32" = 1'-0"
140
0.09375
141
12.0
290
     0
  0
SCALE
  5
5E
102
{ACAD_REACTORS
330
47
102
}
330
47
100
AcDbScale
 70
     0
300
1/8" = 1'-0"
140
0.125
141
12.0
290
     0
  0
SCALE
  5
5F
102
{ACAD_REACTORS
330
47
102
}
330
47
100
AcDbScale
 70
     0
300
3/16" = 1'-0"
140
0.1875
141
12.0
290
     0
  0
SCALE
  5
60
102
{ACAD_REACTORS
330
47
102
}
330
47
100
AcDbScale
 70
     0
300
1/4" = 1'-0"
140
0.25
141
12.0
290
     0
  0
SCALE
  5
61
102
{ACAD_REACTORS
330
47
102
}
330
47
100
AcDbScale
 70
     0
300
3/8" = 1'-0"
140
0.375
141
12.0
290
     0
  0
SCALE
  5
62
102
{ACAD_REACTORS
330
47
102
}
330
47
100
AcDbScale
 70
     0
300
1/2" = 1'-0"
140
0.5
141
12.0
290
     0
  0
SCALE
  5
63
102
{ACAD_REACTORS
330
47
102
}
330
47
100
AcDbScale
 70
     0
300
3/4" = 1'-0"
140
0.75
141
12.0
290
     0
  0
SCALE
  5
64
102
{ACAD_REACTORS
330
47
102
}
330
47
100
AcDbScale
 70
     0
300
1" = 1'-0"
140
1.0
141
12.0
290
     0
  0
SCALE
  5
65
102
{ACAD_REACTORS
330
47
102
}
330
47
100
AcDbScale
 70
     0
300
1-1/2" = 1'-0"
140
1.5
141
12.0
290
     0
  0
SCALE
  5
66
102
{ACAD_REACTORS
330
47
102
}
330
47
100
AcDbScale
 70
     0
300
3" = 1'-0"
140
3.0
141
12.0
290
     0
  0
SCALE
  5
67
102
{ACAD_REACTORS
330
47
102
}
330
47
100
AcDbScale
 70
     0
300
6" = 1'-0"
140
6.0
141
12.0
290
     0
  0
SCALE
  5
68
102
{ACAD_REACTORS
330
47
102
}
330
47
100
AcDbScale
 70
     0
300
1'-0" = 1'-0"
140
12.0
141
12.0
290
     0
  0
ENDSEC
  0
EOF
